<?xml version="1.0" encoding="UTF-8" standalone="no"?>
<!DOCTYPE svg PUBLIC "-//W3C//DTD SVG 1.0//EN" "http://www.w3.org/TR/2001/PR-SVG-20010719/DTD/svg10.dtd">
<svg width="41cm" height="17cm" viewBox="19 18 802 323" xmlns="http://www.w3.org/2000/svg" xmlns:xlink="http://www.w3.org/1999/xlink">
  <g>
    <rect style="fill: #ffffff" x="40" y="260" width="160" height="80"/>
    <rect style="fill: none; fill-opacity:0; stroke-width: 2; stroke: #000000" x="40" y="260" width="160" height="80"/>
    <text font-size="14.6756" style="fill: #000000;text-anchor:middle;font-family:sans-serif;font-style:normal;font-weight:normal" x="120" y="304.478">
      <tspan x="120" y="304.478">Camera input</tspan>
    </text>
  </g>
  <g>
    <rect style="fill: #add8e6" x="240" y="260" width="160.1" height="80"/>
    <rect style="fill: none; fill-opacity:0; stroke-width: 2; stroke: #000000" x="240" y="260" width="160.1" height="80"/>
    <text font-size="14.6756" style="fill: #000000;text-anchor:middle;font-family:sans-serif;font-style:normal;font-weight:normal" x="320.05" y="295.306">
      <tspan x="320.05" y="295.306">Convert to</tspan>
      <tspan x="320.05" y="313.65">AXI4-Stream Video</tspan>
    </text>
  </g>
  <g>
    <line style="fill: none; fill-opacity:0; stroke-width: 2; stroke: #000000" x1="200.989" y1="300" x2="229.276" y2="300"/>
    <polygon style="fill: #000000" points="236.776,300 226.776,305 229.276,300 226.776,295 "/>
    <polygon style="fill: none; fill-opacity:0; stroke-width: 2; stroke: #000000" points="236.776,300 226.776,305 229.276,300 226.776,295 "/>
  </g>
  <g>
    <rect style="fill: #90ee90" x="440" y="260" width="160" height="80"/>
    <rect style="fill: none; fill-opacity:0; stroke-width: 2; stroke: #000000" x="440" y="260" width="160" height="80"/>
    <text font-size="14.6756" style="fill: #000000;text-anchor:middle;font-family:sans-serif;font-style:normal;font-weight:normal" x="520" y="286.133">
      <tspan x="520" y="286.133">AXI</tspan>
      <tspan x="520" y="304.478">Video Direct</tspan>
      <tspan x="520" y="322.822">Memory Access</tspan>
    </text>
  </g>
  <g>
    <line style="fill: none; fill-opacity:0; stroke-width: 2; stroke: #000000" x1="480" y1="260" x2="480" y2="229.736"/>
    <polygon style="fill: #000000" points="480,222.236 485,232.236 480,229.736 475,232.236 "/>
    <polygon style="fill: none; fill-opacity:0; stroke-width: 2; stroke: #000000" points="480,222.236 485,232.236 480,229.736 475,232.236 "/>
  </g>
  <g>
    <line style="fill: none; fill-opacity:0; stroke-width: 2; stroke: #7f7f7f" x1="560" y1="220" x2="560" y2="250.264"/>
    <polygon style="fill: #7f7f7f" points="560,257.764 555,247.764 560,250.264 565,247.764 "/>
    <polygon style="fill: none; fill-opacity:0; stroke-width: 2; stroke: #7f7f7f" points="560,257.764 555,247.764 560,250.264 565,247.764 "/>
  </g>
  <g>
    <line style="fill: none; fill-opacity:0; stroke-width: 2; stroke: #000000" x1="401.097" y1="300" x2="429.266" y2="300"/>
    <polygon style="fill: #000000" points="436.766,300 426.766,305 429.266,300 426.766,295 "/>
    <polygon style="fill: none; fill-opacity:0; stroke-width: 2; stroke: #000000" points="436.766,300 426.766,305 429.266,300 426.766,295 "/>
  </g>
  <g>
    <line style="fill: none; fill-opacity:0; stroke-width: 2; stroke: #7f7f7f" x1="600.953" y1="300" x2="629.282" y2="300"/>
    <polygon style="fill: #7f7f7f" points="636.782,300 626.782,305 629.282,300 626.782,295 "/>
    <polygon style="fill: none; fill-opacity:0; stroke-width: 2; stroke: #7f7f7f" points="636.782,300 626.782,305 629.282,300 626.782,295 "/>
  </g>
  <line style="fill: none; fill-opacity:0; stroke-width: 2; stroke-dasharray: 4; stroke: #7f7f7f" x1="20" y1="180" x2="820" y2="180"/>
  <g>
    <rect style="fill: #ffffff" x="440" y="140" width="160" height="80"/>
    <rect style="fill: none; fill-opacity:0; stroke-width: 2; stroke: #000000" x="440" y="140" width="160" height="80"/>
    <text font-size="14.6756" style="fill: #000000;text-anchor:middle;font-family:sans-serif;font-style:normal;font-weight:normal" x="520" y="184.478">
      <tspan x="520" y="184.478">DDR memory</tspan>
    </text>
  </g>
  <text font-size="12.8" style="fill: #000000;text-anchor:start;font-family:sans-serif;font-style:normal;font-weight:normal" x="40" y="164.425">
    <tspan x="40" y="164.425">C code running on ARM cores</tspan>
  </text>
  <text font-size="12.8" style="fill: #000000;text-anchor:start;font-family:sans-serif;font-style:normal;font-weight:normal" x="40" y="204.425">
    <tspan x="40" y="204.425">VHDL code running on programmable fabric</tspan>
  </text>
  <g>
    <rect style="fill: #ffffff" x="440" y="20" width="160" height="80"/>
    <rect style="fill: none; fill-opacity:0; stroke-width: 2; stroke: #000000" x="440" y="20" width="160" height="80"/>
    <text font-size="14.6756" style="fill: #000000;text-anchor:middle;font-family:sans-serif;font-style:normal;font-weight:normal" x="520" y="46.1333">
      <tspan x="520" y="46.1333">Video4Linux2</tspan>
      <tspan x="520" y="64.4778">kernel module</tspan>
      <tspan x="520" y="82.8222">(/dev/video0)</tspan>
    </text>
  </g>
  <g>
    <rect style="fill: #add8e6" x="640" y="20" width="160" height="80"/>
    <rect style="fill: none; fill-opacity:0; stroke-width: 2; stroke: #000000" x="640" y="20" width="160" height="80"/>
    <text font-size="14.6756" style="fill: #000000;text-anchor:middle;font-family:sans-serif;font-style:normal;font-weight:normal" x="720" y="46.1333">
      <tspan x="720" y="46.1333">Video4Linux2</tspan>
      <tspan x="720" y="64.4778">userspace</tspan>
      <tspan x="720" y="82.8222">application</tspan>
    </text>
  </g>
  <g>
    <line style="fill: none; fill-opacity:0; stroke-width: 2; stroke: #000000" x1="600.981" y1="60" x2="628.019" y2="60"/>
    <polygon style="fill: #000000" points="628.019,65 638.019,60 628.019,55 "/>
    <polygon style="fill: none; fill-opacity:0; stroke-width: 2; stroke: #000000" points="628.019,65 638.019,60 628.019,55 "/>
  </g>
  <g>
    <line style="fill: none; fill-opacity:0; stroke-width: 2; stroke: #000000" x1="480" y1="140" x2="480" y2="111"/>
    <polygon style="fill: #000000" points="485,111 480,101 475,111 "/>
    <polygon style="fill: none; fill-opacity:0; stroke-width: 2; stroke: #000000" points="485,111 480,101 475,111 "/>
  </g>
</svg>
