<?xml version="1.0" encoding="UTF-8" standalone="no"?>
<!DOCTYPE svg PUBLIC "-//W3C//DTD SVG 1.0//EN" "http://www.w3.org/TR/2001/PR-SVG-20010719/DTD/svg10.dtd">
<svg width="69cm" height="11cm" viewBox="19 18 1362 203" xmlns="http://www.w3.org/2000/svg" xmlns:xlink="http://www.w3.org/1999/xlink">
  <g>
    <rect style="fill: #ffffff" x="20" y="140" width="160" height="80"/>
    <rect style="fill: none; fill-opacity:0; stroke-width: 2; stroke: #000000" x="20" y="140" width="160" height="80"/>
    <text font-size="14.6756" style="fill: #000000;text-anchor:middle;font-family:sans-serif;font-style:normal;font-weight:normal" x="100" y="184.478">
      <tspan x="100" y="184.478">Camera input</tspan>
    </text>
  </g>
  <g>
    <rect style="fill: #add8e6" x="220" y="140" width="160.1" height="80"/>
    <rect style="fill: none; fill-opacity:0; stroke-width: 2; stroke: #000000" x="220" y="140" width="160.1" height="80"/>
    <text font-size="14.6756" style="fill: #000000;text-anchor:middle;font-family:sans-serif;font-style:normal;font-weight:normal" x="300.05" y="175.306">
      <tspan x="300.05" y="175.306">Convert to</tspan>
      <tspan x="300.05" y="193.65">AXI4-Stream Video</tspan>
    </text>
  </g>
  <g>
    <line style="fill: none; fill-opacity:0; stroke-width: 2; stroke: #000000" x1="180.989" y1="180" x2="209.276" y2="180"/>
    <polygon style="fill: #000000" points="216.776,180 206.776,185 209.276,180 206.776,175 "/>
    <polygon style="fill: none; fill-opacity:0; stroke-width: 2; stroke: #000000" points="216.776,180 206.776,185 209.276,180 206.776,175 "/>
  </g>
  <g>
    <rect style="fill: #90ee90" x="420" y="140" width="160" height="80"/>
    <rect style="fill: none; fill-opacity:0; stroke-width: 2; stroke: #000000" x="420" y="140" width="160" height="80"/>
    <text font-size="14.6756" style="fill: #000000;text-anchor:middle;font-family:sans-serif;font-style:normal;font-weight:normal" x="500" y="184.478">
      <tspan x="500" y="184.478">Video DMA</tspan>
    </text>
  </g>
  <g>
    <rect style="fill: #ffffff" x="420" y="20" width="160" height="80"/>
    <rect style="fill: none; fill-opacity:0; stroke-width: 2; stroke: #000000" x="420" y="20" width="160" height="80"/>
    <text font-size="14.6756" style="fill: #000000;text-anchor:middle;font-family:sans-serif;font-style:normal;font-weight:normal" x="500" y="64.4778">
      <tspan x="500" y="64.4778">DDR memory</tspan>
    </text>
  </g>
  <g>
    <line style="fill: none; fill-opacity:0; stroke-width: 2; stroke: #000000" x1="460" y1="140" x2="460" y2="109.736"/>
    <polygon style="fill: #000000" points="460,102.236 465,112.236 460,109.736 455,112.236 "/>
    <polygon style="fill: none; fill-opacity:0; stroke-width: 2; stroke: #000000" points="460,102.236 465,112.236 460,109.736 455,112.236 "/>
  </g>
  <g>
    <line style="fill: none; fill-opacity:0; stroke-width: 2; stroke: #000000" x1="540" y1="100" x2="540" y2="130.264"/>
    <polygon style="fill: #000000" points="540,137.764 535,127.764 540,130.264 545,127.764 "/>
    <polygon style="fill: none; fill-opacity:0; stroke-width: 2; stroke: #000000" points="540,137.764 535,127.764 540,130.264 545,127.764 "/>
  </g>
  <g>
    <line style="fill: none; fill-opacity:0; stroke-width: 2; stroke: #000000" x1="381.097" y1="180" x2="409.266" y2="180"/>
    <polygon style="fill: #000000" points="416.766,180 406.766,185 409.266,180 406.766,175 "/>
    <polygon style="fill: none; fill-opacity:0; stroke-width: 2; stroke: #000000" points="416.766,180 406.766,185 409.266,180 406.766,175 "/>
  </g>
  <g>
    <rect style="fill: #90ee90" x="1020" y="140" width="160" height="80"/>
    <rect style="fill: none; fill-opacity:0; stroke-width: 2; stroke: #000000" x="1020" y="140" width="160" height="80"/>
    <text font-size="14.6756" style="fill: #000000;text-anchor:middle;font-family:sans-serif;font-style:normal;font-weight:normal" x="1100" y="175.306">
      <tspan x="1100" y="175.306">AXI4-Stream to</tspan>
      <tspan x="1100" y="193.65">Video Out v3.0</tspan>
    </text>
  </g>
  <g>
    <rect style="fill: #90ee90" x="820" y="140" width="160" height="80"/>
    <rect style="fill: none; fill-opacity:0; stroke-width: 2; stroke: #000000" x="820" y="140" width="160" height="80"/>
    <text font-size="14.6756" style="fill: #000000;text-anchor:middle;font-family:sans-serif;font-style:normal;font-weight:normal" x="900" y="184.478">
      <tspan x="900" y="184.478">Video DMA</tspan>
    </text>
  </g>
  <g>
    <rect style="fill: #add8e6" x="620" y="140" width="160" height="80"/>
    <rect style="fill: none; fill-opacity:0; stroke-width: 2; stroke: #000000" x="620" y="140" width="160" height="80"/>
    <text font-size="14.6756" style="fill: #000000;text-anchor:middle;font-family:sans-serif;font-style:normal;font-weight:normal" x="700" y="184.478">
      <tspan x="700" y="184.478">Video processing</tspan>
    </text>
  </g>
  <g>
    <rect style="fill: #ffffff" x="1220" y="140" width="160" height="80"/>
    <rect style="fill: none; fill-opacity:0; stroke-width: 2; stroke: #000000" x="1220" y="140" width="160" height="80"/>
    <text font-size="14.6756" style="fill: #000000;text-anchor:middle;font-family:sans-serif;font-style:normal;font-weight:normal" x="1300" y="175.306">
      <tspan x="1300" y="175.306">Video output</tspan>
      <tspan x="1300" y="193.65">(VGA, HDMI, etc)</tspan>
    </text>
  </g>
  <g>
    <line style="fill: none; fill-opacity:0; stroke-width: 2; stroke: #000000" x1="1180.98" y1="180" x2="1209.28" y2="180"/>
    <polygon style="fill: #000000" points="1216.78,180 1206.78,185 1209.28,180 1206.78,175 "/>
    <polygon style="fill: none; fill-opacity:0; stroke-width: 2; stroke: #000000" points="1216.78,180 1206.78,185 1209.28,180 1206.78,175 "/>
  </g>
  <g>
    <line style="fill: none; fill-opacity:0; stroke-width: 2; stroke: #000000" x1="980.981" y1="180" x2="1009.28" y2="180"/>
    <polygon style="fill: #000000" points="1016.78,180 1006.78,185 1009.28,180 1006.78,175 "/>
    <polygon style="fill: none; fill-opacity:0; stroke-width: 2; stroke: #000000" points="1016.78,180 1006.78,185 1009.28,180 1006.78,175 "/>
  </g>
  <g>
    <line style="fill: none; fill-opacity:0; stroke-width: 2; stroke: #000000" x1="780.981" y1="180" x2="809.282" y2="180"/>
    <polygon style="fill: #000000" points="816.782,180 806.782,185 809.282,180 806.782,175 "/>
    <polygon style="fill: none; fill-opacity:0; stroke-width: 2; stroke: #000000" points="816.782,180 806.782,185 809.282,180 806.782,175 "/>
  </g>
  <g>
    <line style="fill: none; fill-opacity:0; stroke-width: 2; stroke: #000000" x1="580.981" y1="180" x2="609.282" y2="180"/>
    <polygon style="fill: #000000" points="616.782,180 606.782,185 609.282,180 606.782,175 "/>
    <polygon style="fill: none; fill-opacity:0; stroke-width: 2; stroke: #000000" points="616.782,180 606.782,185 609.282,180 606.782,175 "/>
  </g>
  <g>
    <rect style="fill: #ffffff" x="820" y="20" width="160" height="80"/>
    <rect style="fill: none; fill-opacity:0; stroke-width: 2; stroke: #000000" x="820" y="20" width="160" height="80"/>
    <text font-size="14.6756" style="fill: #000000;text-anchor:middle;font-family:sans-serif;font-style:normal;font-weight:normal" x="900" y="64.4778">
      <tspan x="900" y="64.4778">DDR memory</tspan>
    </text>
  </g>
  <g>
    <line style="fill: none; fill-opacity:0; stroke-width: 2; stroke: #000000" x1="860" y1="140" x2="860" y2="109.736"/>
    <polygon style="fill: #000000" points="860,102.236 865,112.236 860,109.736 855,112.236 "/>
    <polygon style="fill: none; fill-opacity:0; stroke-width: 2; stroke: #000000" points="860,102.236 865,112.236 860,109.736 855,112.236 "/>
  </g>
  <g>
    <line style="fill: none; fill-opacity:0; stroke-width: 2; stroke: #000000" x1="940" y1="100" x2="940" y2="130.264"/>
    <polygon style="fill: #000000" points="940,137.764 935,127.764 940,130.264 945,127.764 "/>
    <polygon style="fill: none; fill-opacity:0; stroke-width: 2; stroke: #000000" points="940,137.764 935,127.764 940,130.264 945,127.764 "/>
  </g>
</svg>
