<?xml version="1.0" encoding="UTF-8" standalone="no"?>
<!-- Created by diasvg.py -->
<svg width="7.273cm" height="11.146cm" viewBox="0.874 0.199 8.147 11.345"
 xmlns="http://www.w3.org/2000/svg"
 xmlns:xlink="http://www.w3.org/1999/xlink">
<ellipse cx="1.285" cy="10.186" rx="0.152" ry="0.152" fill="#000000" stroke="none"  /><ellipse cx="1.285" cy="10.186" rx="0.152" ry="0.152" fill="none" stroke="#000000"  stroke-width="0.100" /><ellipse cx="1.285" cy="10.186" rx="0.152" ry="0.152" fill="none" stroke="#000000"  stroke-width="0.010" /><line x1="1.645" y1="5.001" x2="1.652" y2="7.233" stroke="#000000" stroke-width="0.100" />
<ellipse cx="2.012" cy="2.328" rx="0.152" ry="0.152" fill="#000000" stroke="none"  /><ellipse cx="2.012" cy="2.328" rx="0.152" ry="0.152" fill="none" stroke="#000000"  stroke-width="0.100" /><ellipse cx="2.012" cy="2.328" rx="0.152" ry="0.152" fill="none" stroke="#000000"  stroke-width="0.010" /><ellipse cx="1.667" cy="6.708" rx="0.152" ry="0.152" fill="#000000" stroke="none"  /><ellipse cx="1.667" cy="6.708" rx="0.152" ry="0.152" fill="none" stroke="#000000"  stroke-width="0.100" /><ellipse cx="1.667" cy="6.708" rx="0.152" ry="0.152" fill="none" stroke="#000000"  stroke-width="0.010" /><line x1="7.370" y1="5.860" x2="7.376" y2="4.980" stroke="#000000" stroke-width="0.100" />
<path stroke="#000000" fill="none" stroke-width="0.100"  d="M 2.164,2.328 C 3.484,2.239 6.613,8.719 6.649,4.980 "/>
<ellipse cx="7.028" cy="2.301" rx="0.152" ry="0.152" fill="#000000" stroke="none"  /><ellipse cx="7.028" cy="2.301" rx="0.152" ry="0.152" fill="none" stroke="#000000"  stroke-width="0.100" /><ellipse cx="7.028" cy="2.301" rx="0.152" ry="0.152" fill="none" stroke="#000000"  stroke-width="0.010" /><path stroke="#000000" fill="none" stroke-width="0.100"  d="M 2.373,5.001 C 2.321,8.754 5.608,2.264 6.827,2.296 "/>
<ellipse cx="2.012" cy="1.410" rx="0.152" ry="0.152" fill="#000000" stroke="none"  /><ellipse cx="2.012" cy="1.410" rx="0.152" ry="0.152" fill="none" stroke="#000000"  stroke-width="0.100" /><ellipse cx="2.012" cy="1.410" rx="0.152" ry="0.152" fill="none" stroke="#000000"  stroke-width="0.010" /><ellipse cx="7.039" cy="1.394" rx="0.152" ry="0.152" fill="#000000" stroke="none"  /><ellipse cx="7.039" cy="1.394" rx="0.152" ry="0.152" fill="none" stroke="#000000"  stroke-width="0.100" /><ellipse cx="7.039" cy="1.394" rx="0.152" ry="0.152" fill="none" stroke="#000000"  stroke-width="0.010" /><line x1="2.012" y1="1.611" x2="2.012" y2="2.127" stroke="#000000" stroke-width="0.100" />
<line x1="7.037" y1="1.595" x2="7.031" y2="2.101" stroke="#000000" stroke-width="0.100" />
<text x="2.000" y="0.813"  fill="#000000" text-anchor="middle" font-size="0.80" font-family="sans" font-style="normal" font-weight="400">
q</text>
<text x="1.250" y="11.180"  fill="#000000" text-anchor="middle" font-size="0.80" font-family="sans" font-style="normal" font-weight="400">
d</text>
<text x="7.000" y="0.813"  fill="#000000" text-anchor="middle" font-size="0.80" font-family="sans" font-style="normal" font-weight="400">
!q</text>
<line x1="2.009" y1="3.001" x2="2.011" y2="2.529" stroke="#000000" stroke-width="0.100" />
<line x1="7.012" y1="2.980" x2="7.024" y2="2.498" stroke="#000000" stroke-width="0.100" />
<line x1="1.288" y1="9.233" x2="1.286" y2="9.984" stroke="#000000" stroke-width="0.100" />
<ellipse cx="4.449" cy="10.236" rx="0.152" ry="0.152" fill="#000000" stroke="none"  /><ellipse cx="4.449" cy="10.236" rx="0.152" ry="0.152" fill="none" stroke="#000000"  stroke-width="0.100" /><ellipse cx="4.449" cy="10.236" rx="0.152" ry="0.152" fill="none" stroke="#000000"  stroke-width="0.010" /><text x="4.494" y="11.195"  fill="#000000" text-anchor="middle" font-size="0.80" font-family="sans" font-style="normal" font-weight="400">
clk</text>
<path stroke="none" fill="#FFFFFF" stroke-width="0.100" d="M 2.009,3.183 C 2.736,3.183 2.736,4.274 2.736,5.001 C 2.373,5.001 1.645,5.001 1.282,5.001 C 1.282,4.274 1.282,3.183 2.009,3.183 "/>
<path stroke="#000000" fill="none" stroke-width="0.100"  d="M 2.009,3.183 C 2.736,3.183 2.736,4.274 2.736,5.001 C 2.373,5.001 1.645,5.001 1.282,5.001 C 1.282,4.274 1.282,3.183 2.009,3.183 "/>
<path stroke="#000000" fill="none" stroke-width="0.010"  d="M 2.009,3.183 C 2.736,3.183 2.736,4.274 2.736,5.001 C 2.373,5.001 1.645,5.001 1.282,5.001 C 1.282,4.274 1.282,3.183 2.009,3.183 "/>
<ellipse cx="2.009" cy="3.092" rx="0.091" ry="0.091" fill="#FFFFFF" stroke="none"  /><ellipse cx="2.009" cy="3.092" rx="0.091" ry="0.091" fill="none" stroke="#000000"  stroke-width="0.100" /><ellipse cx="2.009" cy="3.092" rx="0.091" ry="0.091" fill="none" stroke="#000000"  stroke-width="0.010" /><path stroke="none" fill="#FFFFFF" stroke-width="0.100" d="M 7.012,3.162 C 7.739,3.162 7.739,4.253 7.739,4.980 C 7.376,4.980 6.649,4.980 6.285,4.980 C 6.285,4.253 6.285,3.162 7.012,3.162 "/>
<path stroke="#000000" fill="none" stroke-width="0.100"  d="M 7.012,3.162 C 7.739,3.162 7.739,4.253 7.739,4.980 C 7.376,4.980 6.649,4.980 6.285,4.980 C 6.285,4.253 6.285,3.162 7.012,3.162 "/>
<path stroke="#000000" fill="none" stroke-width="0.010"  d="M 7.012,3.162 C 7.739,3.162 7.739,4.253 7.739,4.980 C 7.376,4.980 6.649,4.980 6.285,4.980 C 6.285,4.253 6.285,3.162 7.012,3.162 "/>
<ellipse cx="7.012" cy="3.071" rx="0.091" ry="0.091" fill="#FFFFFF" stroke="none"  /><ellipse cx="7.012" cy="3.071" rx="0.091" ry="0.091" fill="none" stroke="#000000"  stroke-width="0.100" /><ellipse cx="7.012" cy="3.071" rx="0.091" ry="0.091" fill="none" stroke="#000000"  stroke-width="0.010" /><path stroke="none" fill="#FFFFFF" stroke-width="0.100" d="M 1.652,7.414 C 2.379,7.414 2.379,8.505 2.379,9.233 C 2.015,9.233 1.288,9.233 0.924,9.233 C 0.924,8.505 0.924,7.414 1.652,7.414 "/>
<path stroke="#000000" fill="none" stroke-width="0.100"  d="M 1.652,7.414 C 2.379,7.414 2.379,8.505 2.379,9.233 C 2.015,9.233 1.288,9.233 0.924,9.233 C 0.924,8.505 0.924,7.414 1.652,7.414 "/>
<path stroke="#000000" fill="none" stroke-width="0.010"  d="M 1.652,7.414 C 2.379,7.414 2.379,8.505 2.379,9.233 C 2.015,9.233 1.288,9.233 0.924,9.233 C 0.924,8.505 0.924,7.414 1.652,7.414 "/>
<ellipse cx="1.652" cy="7.323" rx="0.091" ry="0.091" fill="#FFFFFF" stroke="none"  /><ellipse cx="1.652" cy="7.323" rx="0.091" ry="0.091" fill="none" stroke="#000000"  stroke-width="0.100" /><ellipse cx="1.652" cy="7.323" rx="0.091" ry="0.091" fill="none" stroke="#000000"  stroke-width="0.010" /><path stroke="none" fill="#FFFFFF" stroke-width="0.100" d="M 7.370,6.042 C 8.097,6.042 8.097,7.133 8.097,7.860 C 7.733,7.860 7.006,7.860 6.642,7.860 C 6.642,7.133 6.642,6.042 7.370,6.042 "/>
<path stroke="#000000" fill="none" stroke-width="0.100"  d="M 7.370,6.042 C 8.097,6.042 8.097,7.133 8.097,7.860 C 7.733,7.860 7.006,7.860 6.642,7.860 C 6.642,7.133 6.642,6.042 7.370,6.042 "/>
<path stroke="#000000" fill="none" stroke-width="0.010"  d="M 7.370,6.042 C 8.097,6.042 8.097,7.133 8.097,7.860 C 7.733,7.860 7.006,7.860 6.642,7.860 C 6.642,7.133 6.642,6.042 7.370,6.042 "/>
<ellipse cx="7.370" cy="5.951" rx="0.091" ry="0.091" fill="#FFFFFF" stroke="none"  /><ellipse cx="7.370" cy="5.951" rx="0.091" ry="0.091" fill="none" stroke="#000000"  stroke-width="0.100" /><ellipse cx="7.370" cy="5.951" rx="0.091" ry="0.091" fill="none" stroke="#000000"  stroke-width="0.010" /><ellipse cx="4.433" cy="9.269" rx="0.152" ry="0.152" fill="#000000" stroke="none"  /><ellipse cx="4.433" cy="9.269" rx="0.152" ry="0.152" fill="none" stroke="#000000"  stroke-width="0.100" /><ellipse cx="4.433" cy="9.269" rx="0.152" ry="0.152" fill="none" stroke="#000000"  stroke-width="0.010" /><line x1="4.446" y1="10.035" x2="4.436" y2="9.470" stroke="#000000" stroke-width="0.100" />
<path stroke="#000000" fill="none" stroke-width="0.100"  d="M 4.635,9.269 C 5.489,9.269 7.733,10.081 7.733,7.860 "/>
<path stroke="#000000" fill="none" stroke-width="0.100"  d="M 2.015,9.233 C 1.997,10.113 3.429,9.269 4.232,9.269 "/>
<path stroke="#000000" fill="none" stroke-width="0.100"  d="M 1.869,6.713 C 3.904,6.763 7.061,9.551 7.006,7.860 "/>
</svg>