<?xml version="1.0" encoding="UTF-8" standalone="no"?>
<!-- Created by diasvg.py -->
<svg width="6.555cm" height="7.892cm" viewBox="1.227 0.199 7.782 8.091"
 xmlns="http://www.w3.org/2000/svg"
 xmlns:xlink="http://www.w3.org/1999/xlink">
<path stroke="none" fill="#FFFFFF" stroke-width="0.100" d="M 2.004,3.306 C 2.732,3.670 2.732,4.397 2.732,5.124 C 2.368,4.761 1.641,4.761 1.277,5.124 C 1.277,4.397 1.277,3.670 2.004,3.306 "/>
<path stroke="#000000" fill="none" stroke-width="0.100"  d="M 2.004,3.306 C 2.732,3.670 2.732,4.397 2.732,5.124 C 2.368,4.761 1.641,4.761 1.277,5.124 C 1.277,4.397 1.277,3.670 2.004,3.306 "/>
<path stroke="#000000" fill="none" stroke-width="0.010"  d="M 2.004,3.306 C 2.732,3.670 2.732,4.397 2.732,5.124 C 2.368,4.761 1.641,4.761 1.277,5.124 C 1.277,4.397 1.277,3.670 2.004,3.306 "/>
<ellipse cx="2.004" cy="3.215" rx="0.091" ry="0.091" fill="#FFFFFF" stroke="none"  /><ellipse cx="2.004" cy="3.215" rx="0.091" ry="0.091" fill="none" stroke="#000000"  stroke-width="0.100" /><ellipse cx="2.004" cy="3.215" rx="0.091" ry="0.091" fill="none" stroke="#000000"  stroke-width="0.010" /><path stroke="none" fill="#FFFFFF" stroke-width="0.100" d="M 7.004,3.306 C 7.732,3.670 7.732,4.397 7.732,5.124 C 7.368,4.761 6.641,4.761 6.277,5.124 C 6.277,4.397 6.277,3.670 7.004,3.306 "/>
<path stroke="#000000" fill="none" stroke-width="0.100"  d="M 7.004,3.306 C 7.732,3.670 7.732,4.397 7.732,5.124 C 7.368,4.761 6.641,4.761 6.277,5.124 C 6.277,4.397 6.277,3.670 7.004,3.306 "/>
<path stroke="#000000" fill="none" stroke-width="0.010"  d="M 7.004,3.306 C 7.732,3.670 7.732,4.397 7.732,5.124 C 7.368,4.761 6.641,4.761 6.277,5.124 C 6.277,4.397 6.277,3.670 7.004,3.306 "/>
<ellipse cx="7.004" cy="3.215" rx="0.091" ry="0.091" fill="#FFFFFF" stroke="none"  /><ellipse cx="7.004" cy="3.215" rx="0.091" ry="0.091" fill="none" stroke="#000000"  stroke-width="0.100" /><ellipse cx="7.004" cy="3.215" rx="0.091" ry="0.091" fill="none" stroke="#000000"  stroke-width="0.010" /><ellipse cx="1.643" cy="6.879" rx="0.152" ry="0.152" fill="#000000" stroke="none"  /><ellipse cx="1.643" cy="6.879" rx="0.152" ry="0.152" fill="none" stroke="#000000"  stroke-width="0.100" /><ellipse cx="1.643" cy="6.879" rx="0.152" ry="0.152" fill="none" stroke="#000000"  stroke-width="0.010" /><line x1="1.641" y1="4.906" x2="1.642" y2="6.678" stroke="#000000" stroke-width="0.100" />
<ellipse cx="2.012" cy="2.328" rx="0.152" ry="0.152" fill="#000000" stroke="none"  /><ellipse cx="2.012" cy="2.328" rx="0.152" ry="0.152" fill="none" stroke="#000000"  stroke-width="0.100" /><ellipse cx="2.012" cy="2.328" rx="0.152" ry="0.152" fill="none" stroke="#000000"  stroke-width="0.010" /><ellipse cx="7.359" cy="6.867" rx="0.152" ry="0.152" fill="#000000" stroke="none"  /><ellipse cx="7.359" cy="6.867" rx="0.152" ry="0.152" fill="none" stroke="#000000"  stroke-width="0.100" /><ellipse cx="7.359" cy="6.867" rx="0.152" ry="0.152" fill="none" stroke="#000000"  stroke-width="0.010" /><line x1="7.360" y1="6.666" x2="7.368" y2="4.906" stroke="#000000" stroke-width="0.100" />
<path stroke="#000000" fill="none" stroke-width="0.100"  d="M 2.164,2.328 C 3.484,2.239 6.605,8.645 6.641,4.906 "/>
<ellipse cx="7.028" cy="2.301" rx="0.152" ry="0.152" fill="#000000" stroke="none"  /><ellipse cx="7.028" cy="2.301" rx="0.152" ry="0.152" fill="none" stroke="#000000"  stroke-width="0.100" /><ellipse cx="7.028" cy="2.301" rx="0.152" ry="0.152" fill="none" stroke="#000000"  stroke-width="0.010" /><path stroke="#000000" fill="none" stroke-width="0.100"  d="M 2.368,4.906 C 2.317,8.658 5.607,2.264 6.827,2.296 "/>
<ellipse cx="2.012" cy="1.410" rx="0.152" ry="0.152" fill="#000000" stroke="none"  /><ellipse cx="2.012" cy="1.410" rx="0.152" ry="0.152" fill="none" stroke="#000000"  stroke-width="0.100" /><ellipse cx="2.012" cy="1.410" rx="0.152" ry="0.152" fill="none" stroke="#000000"  stroke-width="0.010" /><ellipse cx="7.039" cy="1.394" rx="0.152" ry="0.152" fill="#000000" stroke="none"  /><ellipse cx="7.039" cy="1.394" rx="0.152" ry="0.152" fill="none" stroke="#000000"  stroke-width="0.100" /><ellipse cx="7.039" cy="1.394" rx="0.152" ry="0.152" fill="none" stroke="#000000"  stroke-width="0.010" /><line x1="2.012" y1="1.611" x2="2.012" y2="2.127" stroke="#000000" stroke-width="0.100" />
<line x1="7.037" y1="1.595" x2="7.031" y2="2.101" stroke="#000000" stroke-width="0.100" />
<text x="2.000" y="0.813"  fill="#000000" text-anchor="middle" font-size="0.80" font-family="sans" font-style="normal" font-weight="400">
q</text>
<text x="1.626" y="7.904"  fill="#000000" text-anchor="middle" font-size="0.80" font-family="sans" font-style="normal" font-weight="400">
s</text>
<text x="7.342" y="7.892"  fill="#000000" text-anchor="middle" font-size="0.80" font-family="sans" font-style="normal" font-weight="400">
r</text>
<text x="7.000" y="0.813"  fill="#000000" text-anchor="middle" font-size="0.80" font-family="sans" font-style="normal" font-weight="400">
!q</text>
<line x1="2.004" y1="3.124" x2="2.010" y2="2.528" stroke="#000000" stroke-width="0.100" />
<line x1="7.004" y1="3.124" x2="7.022" y2="2.503" stroke="#000000" stroke-width="0.100" />
</svg>