<?xml version="1.0" encoding="UTF-8" standalone="no"?>
<!-- Created by diasvg.py -->
<svg width="47.100cm" height="16.100cm" viewBox="0.950 0.950 48.050 17.050"
 xmlns="http://www.w3.org/2000/svg"
 xmlns:xlink="http://www.w3.org/1999/xlink">
<line x1="7.066" y1="8.050" x2="10.611" y2="10.708" stroke="#000000" stroke-width="0.100" />
<polygon fill="#000000" stroke="none" stroke-width="0.100" points="10.911,10.933 10.361,10.833 10.611,10.708 10.661,10.433 "/>
<polygon fill="none" stroke="#000000" stroke-width="0.100"  points="10.911,10.933 10.361,10.833 10.611,10.708 10.661,10.433 "/>
<rect x="1.000" y="5.000" width="8.000" height="3.000" fill="#FFFFFF" stroke="none" stroke-width="0"/>
<rect x="1.000" y="5.000" width="8.000" height="3.000" fill="none" stroke="#000000" stroke-width="0.100" />
<text x="5.000" y="6.295"  fill="#000000" text-anchor="middle" font-size="0.80" font-family="sans" font-style="normal" font-weight="400">
VHDL</text>
<text x="5.000" y="7.095"  fill="#000000" text-anchor="middle" font-size="0.80" font-family="sans" font-style="normal" font-weight="400">
data types</text>
<rect x="11.000" y="10.000" width="8.000" height="2.000" fill="#FFFFFF" stroke="none" stroke-width="0"/>
<rect x="11.000" y="10.000" width="8.000" height="2.000" fill="none" stroke="#000000" stroke-width="0.100" />
<text x="15.000" y="11.195"  fill="#000000" text-anchor="middle" font-size="0.80" font-family="sans" font-style="normal" font-weight="400">
Scalar</text>
<rect x="11.000" y="7.000" width="8.000" height="2.000" fill="#FFFFFF" stroke="none" stroke-width="0"/>
<rect x="11.000" y="7.000" width="8.000" height="2.000" fill="none" stroke="#000000" stroke-width="0.100" />
<text x="15.000" y="8.195"  fill="#000000" text-anchor="middle" font-size="0.80" font-family="sans" font-style="normal" font-weight="400">
Access</text>
<rect x="11.000" y="4.000" width="8.000" height="2.000" fill="#FFFFFF" stroke="none" stroke-width="0"/>
<rect x="11.000" y="4.000" width="8.000" height="2.000" fill="none" stroke="#000000" stroke-width="0.100" />
<text x="15.000" y="5.195"  fill="#000000" text-anchor="middle" font-size="0.80" font-family="sans" font-style="normal" font-weight="400">
File</text>
<rect x="11.000" y="1.000" width="8.000" height="2.000" fill="#FFFFFF" stroke="none" stroke-width="0"/>
<rect x="11.000" y="1.000" width="8.000" height="2.000" fill="none" stroke="#000000" stroke-width="0.100" />
<text x="15.000" y="2.195"  fill="#000000" text-anchor="middle" font-size="0.80" font-family="sans" font-style="normal" font-weight="400">
Composite</text>
<line x1="9.050" y1="7.512" x2="10.528" y2="7.882" stroke="#000000" stroke-width="0.100" />
<polygon fill="#000000" stroke="none" stroke-width="0.100" points="10.892,7.973 10.346,8.094 10.528,7.882 10.467,7.609 "/>
<polygon fill="none" stroke="#000000" stroke-width="0.100"  points="10.892,7.973 10.346,8.094 10.528,7.882 10.467,7.609 "/>
<line x1="9.050" y1="5.488" x2="10.528" y2="5.118" stroke="#000000" stroke-width="0.100" />
<polygon fill="#000000" stroke="none" stroke-width="0.100" points="10.892,5.027 10.467,5.391 10.528,5.118 10.346,4.906 "/>
<polygon fill="none" stroke="#000000" stroke-width="0.100"  points="10.892,5.027 10.467,5.391 10.528,5.118 10.346,4.906 "/>
<line x1="7.066" y1="4.950" x2="10.611" y2="2.292" stroke="#000000" stroke-width="0.100" />
<polygon fill="#000000" stroke="none" stroke-width="0.100" points="10.911,2.067 10.661,2.567 10.611,2.292 10.361,2.167 "/>
<polygon fill="none" stroke="#000000" stroke-width="0.100"  points="10.911,2.067 10.661,2.567 10.611,2.292 10.361,2.167 "/>
<rect x="42.000" y="13.000" width="6.000" height="4.000" fill="#FFFFFF" stroke="none" stroke-width="0"/>
<rect x="42.000" y="13.000" width="6.000" height="4.000" fill="none" stroke="#000000" stroke-width="0.100" />
<text x="45.000" y="14.795"  fill="#000000" text-anchor="middle" font-size="0.80" font-family="sans" font-style="normal" font-weight="400">
Real</text>
<text x="45.000" y="15.595"  fill="#000000" text-anchor="middle" font-size="0.80" font-family="sans" font-style="normal" font-weight="400">
(real)</text>
<rect x="35.000" y="13.000" width="6.000" height="4.000" fill="#FFFFFF" stroke="none" stroke-width="0"/>
<rect x="35.000" y="13.000" width="6.000" height="4.000" fill="none" stroke="#000000" stroke-width="0.100" />
<text x="38.000" y="14.795"  fill="#000000" text-anchor="middle" font-size="0.80" font-family="sans" font-style="normal" font-weight="400">
Physical</text>
<text x="38.000" y="15.595"  fill="#000000" text-anchor="middle" font-size="0.80" font-family="sans" font-style="normal" font-weight="400">
(time)</text>
<rect x="28.000" y="13.000" width="6.000" height="4.000" fill="#FFFFFF" stroke="none" stroke-width="0"/>
<rect x="28.000" y="13.000" width="6.000" height="4.000" fill="none" stroke="#000000" stroke-width="0.100" />
<text x="31.000" y="14.795"  fill="#000000" text-anchor="middle" font-size="0.80" font-family="sans" font-style="normal" font-weight="400">
Integer</text>
<text x="31.000" y="15.595"  fill="#000000" text-anchor="middle" font-size="0.80" font-family="sans" font-style="normal" font-weight="400">
(integer)</text>
<rect x="28.000" y="4.000" width="20.000" height="4.000" fill="#FFFFFF" stroke="none" stroke-width="0"/>
<rect x="28.000" y="4.000" width="20.000" height="4.000" fill="none" stroke="#000000" stroke-width="0.100" />
<text x="38.000" y="5.395"  fill="#000000" text-anchor="middle" font-size="0.80" font-family="sans" font-style="normal" font-weight="400">
Array</text>
<text x="38.000" y="6.195"  fill="#000000" text-anchor="middle" font-size="0.80" font-family="sans" font-style="normal" font-weight="400">
(bit_vector, string,</text>
<text x="38.000" y="6.995"  fill="#000000" text-anchor="middle" font-size="0.80" font-family="sans" font-style="normal" font-weight="400">
std_logic_vector, std_ulogic_vector)</text>
<rect x="21.000" y="4.000" width="6.000" height="4.000" fill="#FFFFFF" stroke="none" stroke-width="0"/>
<rect x="21.000" y="4.000" width="6.000" height="4.000" fill="none" stroke="#000000" stroke-width="0.100" />
<text x="24.000" y="6.195"  fill="#000000" text-anchor="middle" font-size="0.80" font-family="sans" font-style="normal" font-weight="400">
Record</text>
<rect x="21.000" y="13.000" width="6.000" height="4.000" fill="#FFFFFF" stroke="none" stroke-width="0"/>
<rect x="21.000" y="13.000" width="6.000" height="4.000" fill="none" stroke="#000000" stroke-width="0.100" />
<text x="24.000" y="14.395"  fill="#000000" text-anchor="middle" font-size="0.80" font-family="sans" font-style="normal" font-weight="400">
Enumerated</text>
<text x="24.000" y="15.195"  fill="#000000" text-anchor="middle" font-size="0.80" font-family="sans" font-style="normal" font-weight="400">
(boolean, bit,</text>
<text x="24.000" y="15.995"  fill="#000000" text-anchor="middle" font-size="0.80" font-family="sans" font-style="normal" font-weight="400">
character)</text>
<polyline fill="none" stroke="#000000" stroke-width="0.100"  points="19.050,2.000 38.000,2.000 38.000,3.513 "/>
<polygon fill="#000000" stroke="none" stroke-width="0.100" points="38.000,3.888 37.750,3.388 38.000,3.513 38.250,3.388 "/>
<polygon fill="none" stroke="#000000" stroke-width="0.100"  points="38.000,3.888 37.750,3.388 38.000,3.513 38.250,3.388 "/>
<line x1="24.000" y1="2.000" x2="24.000" y2="3.513" stroke="#000000" stroke-width="0.100" />
<polygon fill="#000000" stroke="none" stroke-width="0.100" points="24.000,3.888 23.750,3.388 24.000,3.513 24.250,3.388 "/>
<polygon fill="none" stroke="#000000" stroke-width="0.100"  points="24.000,3.888 23.750,3.388 24.000,3.513 24.250,3.388 "/>
<polyline fill="none" stroke="#000000" stroke-width="0.100"  points="19.050,11.000 45.000,11.000 45.000,12.513 "/>
<polygon fill="#000000" stroke="none" stroke-width="0.100" points="45.000,12.888 44.750,12.388 45.000,12.513 45.250,12.388 "/>
<polygon fill="none" stroke="#000000" stroke-width="0.100"  points="45.000,12.888 44.750,12.388 45.000,12.513 45.250,12.388 "/>
<line x1="38.000" y1="11.000" x2="38.000" y2="12.513" stroke="#000000" stroke-width="0.100" />
<polygon fill="#000000" stroke="none" stroke-width="0.100" points="38.000,12.888 37.750,12.388 38.000,12.513 38.250,12.388 "/>
<polygon fill="none" stroke="#000000" stroke-width="0.100"  points="38.000,12.888 37.750,12.388 38.000,12.513 38.250,12.388 "/>
<line x1="31.000" y1="11.000" x2="31.000" y2="12.513" stroke="#000000" stroke-width="0.100" />
<polygon fill="#000000" stroke="none" stroke-width="0.100" points="31.000,12.888 30.750,12.388 31.000,12.513 31.250,12.388 "/>
<polygon fill="none" stroke="#000000" stroke-width="0.100"  points="31.000,12.888 30.750,12.388 31.000,12.513 31.250,12.388 "/>
<line x1="24.000" y1="11.000" x2="24.000" y2="12.513" stroke="#000000" stroke-width="0.100" />
<polygon fill="#000000" stroke="none" stroke-width="0.100" points="24.000,12.888 23.750,12.388 24.000,12.513 24.250,12.388 "/>
<polygon fill="none" stroke="#000000" stroke-width="0.100"  points="24.000,12.888 23.750,12.388 24.000,12.513 24.250,12.388 "/>
</svg>