<?xml version="1.0" encoding="UTF-8" standalone="no"?>
<!DOCTYPE svg PUBLIC "-//W3C//DTD SVG 1.0//EN" "http://www.w3.org/TR/2001/PR-SVG-20010719/DTD/svg10.dtd">
<svg width="60cm" height="12cm" viewBox="-2 24 1200 235" xmlns="http://www.w3.org/2000/svg" xmlns:xlink="http://www.w3.org/1999/xlink">
  <g>
    <rect style="fill: #000000" x="40" y="60" width="500" height="180"/>
    <rect style="fill: none; fill-opacity:0; stroke-width: 2.35099e-37; stroke: #000000" x="40" y="60" width="500" height="180"/>
  </g>
  <g>
    <ellipse style="fill: #e5e5e5" cx="248.737" cy="108.737" rx="30" ry="30"/>
    <ellipse style="fill: none; fill-opacity:0; stroke-width: 2; stroke: #000000" cx="248.737" cy="108.737" rx="30" ry="30"/>
    <text font-size="15.8042" style="fill: #000000;text-anchor:middle;font-family:sans-serif;font-style:normal;font-weight:normal" x="248.737" y="113.559">
      <tspan x="248.737" y="113.559">H15</tspan>
    </text>
  </g>
  <g>
    <ellipse style="fill: #e5e5e5" cx="328.737" cy="108.737" rx="30" ry="30"/>
    <ellipse style="fill: none; fill-opacity:0; stroke-width: 2; stroke: #000000" cx="328.737" cy="108.737" rx="30" ry="30"/>
    <text font-size="15.8042" style="fill: #000000;text-anchor:middle;font-family:sans-serif;font-style:normal;font-weight:normal" x="328.737" y="113.559">
      <tspan x="328.737" y="113.559">J15</tspan>
    </text>
  </g>
  <g>
    <ellipse style="fill: #e5e5e5" cx="409.936" cy="109.936" rx="31.199" ry="31.199"/>
    <ellipse style="fill: none; fill-opacity:0; stroke-width: 2; stroke: #000000" cx="409.936" cy="109.936" rx="31.199" ry="31.199"/>
    <text font-size="15.8042" style="fill: #000000;text-anchor:middle;font-family:sans-serif;font-style:normal;font-weight:normal" x="409.936" y="114.758">
      <tspan x="409.936" y="114.758">W16</tspan>
    </text>
  </g>
  <g>
    <ellipse style="fill: #e5e5e5" cx="488.737" cy="108.737" rx="30" ry="30"/>
    <ellipse style="fill: none; fill-opacity:0; stroke-width: 2; stroke: #000000" cx="488.737" cy="108.737" rx="30" ry="30"/>
    <text font-size="15.8042" style="fill: #000000;text-anchor:middle;font-family:sans-serif;font-style:normal;font-weight:normal" x="488.737" y="113.559">
      <tspan x="488.737" y="113.559">V12</tspan>
    </text>
  </g>
  <g>
    <ellipse style="fill: #e5e5e5" cx="250" cy="190" rx="30" ry="30"/>
    <ellipse style="fill: none; fill-opacity:0; stroke-width: 2; stroke: #000000" cx="250" cy="190" rx="30" ry="30"/>
    <text font-size="15.8042" style="fill: #000000;text-anchor:middle;font-family:sans-serif;font-style:normal;font-weight:normal" x="250" y="194.822">
      <tspan x="250" y="194.822">Y17</tspan>
    </text>
  </g>
  <g>
    <ellipse style="fill: #e5e5e5" cx="330" cy="190" rx="30" ry="30"/>
    <ellipse style="fill: none; fill-opacity:0; stroke-width: 2; stroke: #000000" cx="330" cy="190" rx="30" ry="30"/>
    <text font-size="15.8042" style="fill: #000000;text-anchor:middle;font-family:sans-serif;font-style:normal;font-weight:normal" x="330" y="194.822">
      <tspan x="330" y="194.822">T17</tspan>
    </text>
  </g>
  <g>
    <ellipse style="fill: #e5e5e5" cx="410" cy="190" rx="30" ry="30"/>
    <ellipse style="fill: none; fill-opacity:0; stroke-width: 2; stroke: #000000" cx="410" cy="190" rx="30" ry="30"/>
    <text font-size="15.8042" style="fill: #000000;text-anchor:middle;font-family:sans-serif;font-style:normal;font-weight:normal" x="410" y="194.822">
      <tspan x="410" y="194.822">U17</tspan>
    </text>
  </g>
  <g>
    <ellipse style="fill: #e5e5e5" cx="490" cy="190" rx="30" ry="30"/>
    <ellipse style="fill: none; fill-opacity:0; stroke-width: 2; stroke: #000000" cx="490" cy="190" rx="30" ry="30"/>
    <text font-size="15.8042" style="fill: #000000;text-anchor:middle;font-family:sans-serif;font-style:normal;font-weight:normal" x="490" y="194.822">
      <tspan x="490" y="194.822">V13</tspan>
    </text>
  </g>
  <g>
    <ellipse style="fill: #e5e5e5" cx="88.7145" cy="108.715" rx="31.241" ry="31.241"/>
    <ellipse style="fill: none; fill-opacity:0; stroke-width: 2; stroke: #000000" cx="88.7145" cy="108.715" rx="31.241" ry="31.241"/>
    <text font-size="15.8042" style="fill: #000000;text-anchor:middle;font-family:sans-serif;font-style:normal;font-weight:normal" x="88.7145" y="113.537">
      <tspan x="88.7145" y="113.537">3.3V</tspan>
    </text>
  </g>
  <g>
    <ellipse style="fill: #e5e5e5" cx="170.129" cy="110.129" rx="31.3918" ry="31.3918"/>
    <ellipse style="fill: none; fill-opacity:0; stroke-width: 2; stroke: #000000" cx="170.129" cy="110.129" rx="31.3918" ry="31.3918"/>
    <text font-size="15.8042" style="fill: #000000;text-anchor:middle;font-family:sans-serif;font-style:normal;font-weight:normal" x="170.129" y="114.951">
      <tspan x="170.129" y="114.951">GND</tspan>
    </text>
  </g>
  <g>
    <ellipse style="fill: #e5e5e5" cx="90" cy="190" rx="31.2632" ry="31.2632"/>
    <ellipse style="fill: none; fill-opacity:0; stroke-width: 2; stroke: #000000" cx="90" cy="190" rx="31.2632" ry="31.2632"/>
    <text font-size="15.8042" style="fill: #000000;text-anchor:middle;font-family:sans-serif;font-style:normal;font-weight:normal" x="90" y="194.822">
      <tspan x="90" y="194.822">3.3V</tspan>
    </text>
  </g>
  <g>
    <ellipse style="fill: #e5e5e5" cx="170" cy="190" rx="31.3918" ry="31.3918"/>
    <ellipse style="fill: none; fill-opacity:0; stroke-width: 2; stroke: #000000" cx="170" cy="190" rx="31.3918" ry="31.3918"/>
    <text font-size="15.8042" style="fill: #000000;text-anchor:middle;font-family:sans-serif;font-style:normal;font-weight:normal" x="170" y="194.822">
      <tspan x="170" y="194.822">GND</tspan>
    </text>
  </g>
  <g>
    <rect style="fill: #008000" x="-1.26325" y="238.737" width="1200" height="20"/>
    <rect style="fill: none; fill-opacity:0; stroke-width: 2.35099e-37; stroke: #000000" x="-1.26325" y="238.737" width="1200" height="20"/>
  </g>
  <g>
    <rect style="fill: #000000" x="658.737" y="58.7368" width="500" height="180"/>
    <rect style="fill: none; fill-opacity:0; stroke-width: 2.35099e-37; stroke: #000000" x="658.737" y="58.7368" width="500" height="180"/>
  </g>
  <g>
    <ellipse style="fill: #e5e5e5" cx="867.474" cy="107.474" rx="30" ry="30"/>
    <ellipse style="fill: none; fill-opacity:0; stroke-width: 2; stroke: #000000" cx="867.474" cy="107.474" rx="30" ry="30"/>
    <text font-size="15.8042" style="fill: #000000;text-anchor:middle;font-family:sans-serif;font-style:normal;font-weight:normal" x="867.474" y="112.296">
      <tspan x="867.474" y="112.296">R14</tspan>
    </text>
  </g>
  <g>
    <ellipse style="fill: #e5e5e5" cx="947.474" cy="107.474" rx="30" ry="30"/>
    <ellipse style="fill: none; fill-opacity:0; stroke-width: 2; stroke: #000000" cx="947.474" cy="107.474" rx="30" ry="30"/>
    <text font-size="15.8042" style="fill: #000000;text-anchor:middle;font-family:sans-serif;font-style:normal;font-weight:normal" x="947.474" y="112.296">
      <tspan x="947.474" y="112.296">P14</tspan>
    </text>
  </g>
  <g>
    <ellipse style="fill: #e5e5e5" cx="1028.67" cy="108.673" rx="31.199" ry="31.199"/>
    <ellipse style="fill: none; fill-opacity:0; stroke-width: 2; stroke: #000000" cx="1028.67" cy="108.673" rx="31.199" ry="31.199"/>
    <text font-size="15.8042" style="fill: #000000;text-anchor:middle;font-family:sans-serif;font-style:normal;font-weight:normal" x="1028.67" y="113.495">
      <tspan x="1028.67" y="113.495">T15</tspan>
    </text>
  </g>
  <g>
    <ellipse style="fill: #e5e5e5" cx="1107.47" cy="107.474" rx="30" ry="30"/>
    <ellipse style="fill: none; fill-opacity:0; stroke-width: 2; stroke: #000000" cx="1107.47" cy="107.474" rx="30" ry="30"/>
    <text font-size="15.8042" style="fill: #000000;text-anchor:middle;font-family:sans-serif;font-style:normal;font-weight:normal" x="1107.47" y="112.296">
      <tspan x="1107.47" y="112.296">T14</tspan>
    </text>
  </g>
  <g>
    <ellipse style="fill: #e5e5e5" cx="868.737" cy="188.737" rx="32.6468" ry="32.6468"/>
    <ellipse style="fill: none; fill-opacity:0; stroke-width: 2; stroke: #000000" cx="868.737" cy="188.737" rx="32.6468" ry="32.6468"/>
    <text font-size="15.8042" style="fill: #000000;text-anchor:middle;font-family:sans-serif;font-style:normal;font-weight:normal" x="868.737" y="193.559">
      <tspan x="868.737" y="193.559">V18</tspan>
    </text>
  </g>
  <g>
    <ellipse style="fill: #e5e5e5" cx="948.737" cy="188.737" rx="30" ry="30"/>
    <ellipse style="fill: none; fill-opacity:0; stroke-width: 2; stroke: #000000" cx="948.737" cy="188.737" rx="30" ry="30"/>
    <text font-size="15.8042" style="fill: #000000;text-anchor:middle;font-family:sans-serif;font-style:normal;font-weight:normal" x="948.737" y="193.559">
      <tspan x="948.737" y="193.559">V17</tspan>
    </text>
  </g>
  <g>
    <ellipse style="fill: #e5e5e5" cx="1028.74" cy="188.737" rx="30" ry="30"/>
    <ellipse style="fill: none; fill-opacity:0; stroke-width: 2; stroke: #000000" cx="1028.74" cy="188.737" rx="30" ry="30"/>
    <text font-size="15.8042" style="fill: #000000;text-anchor:middle;font-family:sans-serif;font-style:normal;font-weight:normal" x="1028.74" y="193.559">
      <tspan x="1028.74" y="193.559">U15</tspan>
    </text>
  </g>
  <g>
    <ellipse style="fill: #e5e5e5" cx="1108.74" cy="188.737" rx="30" ry="30"/>
    <ellipse style="fill: none; fill-opacity:0; stroke-width: 2; stroke: #000000" cx="1108.74" cy="188.737" rx="30" ry="30"/>
    <text font-size="15.8042" style="fill: #000000;text-anchor:middle;font-family:sans-serif;font-style:normal;font-weight:normal" x="1108.74" y="193.559">
      <tspan x="1108.74" y="193.559">U14</tspan>
    </text>
  </g>
  <g>
    <ellipse style="fill: #e5e5e5" cx="707.451" cy="107.451" rx="31.241" ry="31.241"/>
    <ellipse style="fill: none; fill-opacity:0; stroke-width: 2; stroke: #000000" cx="707.451" cy="107.451" rx="31.241" ry="31.241"/>
    <text font-size="15.8042" style="fill: #000000;text-anchor:middle;font-family:sans-serif;font-style:normal;font-weight:normal" x="707.451" y="112.274">
      <tspan x="707.451" y="112.274">3.3V</tspan>
    </text>
  </g>
  <g>
    <ellipse style="fill: #e5e5e5" cx="788.865" cy="108.865" rx="31.3918" ry="31.3918"/>
    <ellipse style="fill: none; fill-opacity:0; stroke-width: 2; stroke: #000000" cx="788.865" cy="108.865" rx="31.3918" ry="31.3918"/>
    <text font-size="15.8042" style="fill: #000000;text-anchor:middle;font-family:sans-serif;font-style:normal;font-weight:normal" x="788.865" y="113.688">
      <tspan x="788.865" y="113.688">GND</tspan>
    </text>
  </g>
  <g>
    <ellipse style="fill: #e5e5e5" cx="708.737" cy="188.737" rx="31.2632" ry="31.2632"/>
    <ellipse style="fill: none; fill-opacity:0; stroke-width: 2; stroke: #000000" cx="708.737" cy="188.737" rx="31.2632" ry="31.2632"/>
    <text font-size="15.8042" style="fill: #000000;text-anchor:middle;font-family:sans-serif;font-style:normal;font-weight:normal" x="708.737" y="193.559">
      <tspan x="708.737" y="193.559">3.3V</tspan>
    </text>
  </g>
  <g>
    <ellipse style="fill: #e5e5e5" cx="788.737" cy="188.737" rx="31.3918" ry="31.3918"/>
    <ellipse style="fill: none; fill-opacity:0; stroke-width: 2; stroke: #000000" cx="788.737" cy="188.737" rx="31.3918" ry="31.3918"/>
    <text font-size="15.8042" style="fill: #000000;text-anchor:middle;font-family:sans-serif;font-style:normal;font-weight:normal" x="788.737" y="193.559">
      <tspan x="788.737" y="193.559">GND</tspan>
    </text>
  </g>
  <text font-size="15.8042" style="fill: #000000;text-anchor:start;font-family:sans-serif;font-style:normal;font-weight:normal" x="58.7368" y="38.7368">
    <tspan x="58.7368" y="38.7368">JE</tspan>
  </text>
  <text font-size="15.8042" style="fill: #000000;text-anchor:start;font-family:sans-serif;font-style:normal;font-weight:normal" x="678.737" y="38.7368">
    <tspan x="678.737" y="38.7368">JD</tspan>
  </text>
</svg>
