<?xml version="1.0" encoding="UTF-8" standalone="no"?>
<!DOCTYPE svg PUBLIC "-//W3C//DTD SVG 1.0//EN" "http://www.w3.org/TR/2001/PR-SVG-20010719/DTD/svg10.dtd">
<svg width="41cm" height="17cm" viewBox="-1 18 802 323" xmlns="http://www.w3.org/2000/svg" xmlns:xlink="http://www.w3.org/1999/xlink">
  <g>
    <rect style="fill: #ffffff" x="20" y="260" width="160" height="80"/>
    <rect style="fill: none; fill-opacity:0; stroke-width: 2; stroke: #000000" x="20" y="260" width="160" height="80"/>
    <text font-size="14.6756" style="fill: #000000;text-anchor:middle;font-family:sans-serif;font-style:normal;font-weight:normal" x="100" y="304.478">
      <tspan x="100" y="304.478">Camera input</tspan>
    </text>
  </g>
  <g>
    <rect style="fill: #add8e6" x="220" y="260" width="160.1" height="80"/>
    <rect style="fill: none; fill-opacity:0; stroke-width: 2; stroke: #000000" x="220" y="260" width="160.1" height="80"/>
    <text font-size="14.6756" style="fill: #000000;text-anchor:middle;font-family:sans-serif;font-style:normal;font-weight:normal" x="300.05" y="295.306">
      <tspan x="300.05" y="295.306">Convert to</tspan>
      <tspan x="300.05" y="313.65">AXI4-Stream Video</tspan>
    </text>
  </g>
  <g>
    <line style="fill: none; fill-opacity:0; stroke-width: 2; stroke: #000000" x1="180.989" y1="300" x2="209.276" y2="300"/>
    <polygon style="fill: #000000" points="216.776,300 206.776,305 209.276,300 206.776,295 "/>
    <polygon style="fill: none; fill-opacity:0; stroke-width: 2; stroke: #000000" points="216.776,300 206.776,305 209.276,300 206.776,295 "/>
  </g>
  <g>
    <rect style="fill: #90ee90" x="420" y="260" width="160" height="80"/>
    <rect style="fill: none; fill-opacity:0; stroke-width: 2; stroke: #000000" x="420" y="260" width="160" height="80"/>
    <text font-size="14.6756" style="fill: #000000;text-anchor:middle;font-family:sans-serif;font-style:normal;font-weight:normal" x="500" y="286.133">
      <tspan x="500" y="286.133">AXI</tspan>
      <tspan x="500" y="304.478">Video Direct</tspan>
      <tspan x="500" y="322.822">Memory Access</tspan>
    </text>
  </g>
  <g>
    <line style="fill: none; fill-opacity:0; stroke-width: 2; stroke: #000000" x1="460" y1="260" x2="460" y2="229.736"/>
    <polygon style="fill: #000000" points="460,222.236 465,232.236 460,229.736 455,232.236 "/>
    <polygon style="fill: none; fill-opacity:0; stroke-width: 2; stroke: #000000" points="460,222.236 465,232.236 460,229.736 455,232.236 "/>
  </g>
  <g>
    <line style="fill: none; fill-opacity:0; stroke-width: 2; stroke: #7f7f7f" x1="540" y1="220" x2="540" y2="250.264"/>
    <polygon style="fill: #7f7f7f" points="540,257.764 535,247.764 540,250.264 545,247.764 "/>
    <polygon style="fill: none; fill-opacity:0; stroke-width: 2; stroke: #7f7f7f" points="540,257.764 535,247.764 540,250.264 545,247.764 "/>
  </g>
  <g>
    <line style="fill: none; fill-opacity:0; stroke-width: 2; stroke: #000000" x1="381.097" y1="300" x2="409.266" y2="300"/>
    <polygon style="fill: #000000" points="416.766,300 406.766,305 409.266,300 406.766,295 "/>
    <polygon style="fill: none; fill-opacity:0; stroke-width: 2; stroke: #000000" points="416.766,300 406.766,305 409.266,300 406.766,295 "/>
  </g>
  <g>
    <line style="fill: none; fill-opacity:0; stroke-width: 2; stroke: #7f7f7f" x1="580.953" y1="300" x2="609.282" y2="300"/>
    <polygon style="fill: #7f7f7f" points="616.782,300 606.782,305 609.282,300 606.782,295 "/>
    <polygon style="fill: none; fill-opacity:0; stroke-width: 2; stroke: #7f7f7f" points="616.782,300 606.782,305 609.282,300 606.782,295 "/>
  </g>
  <line style="fill: none; fill-opacity:0; stroke-width: 2; stroke-dasharray: 4; stroke: #7f7f7f" x1="0" y1="180" x2="800" y2="180"/>
  <g>
    <rect style="fill: #ffffff" x="420" y="140" width="160" height="80"/>
    <rect style="fill: none; fill-opacity:0; stroke-width: 2; stroke: #000000" x="420" y="140" width="160" height="80"/>
    <text font-size="14.6756" style="fill: #000000;text-anchor:middle;font-family:sans-serif;font-style:normal;font-weight:normal" x="500" y="184.478">
      <tspan x="500" y="184.478">DDR memory</tspan>
    </text>
  </g>
  <text font-size="12.8" style="fill: #000000;text-anchor:start;font-family:sans-serif;font-style:normal;font-weight:normal" x="20" y="164.425">
    <tspan x="20" y="164.425">C code running on ARM cores</tspan>
  </text>
  <text font-size="12.8" style="fill: #000000;text-anchor:start;font-family:sans-serif;font-style:normal;font-weight:normal" x="20" y="204.425">
    <tspan x="20" y="204.425">VHDL code running on programmable fabric</tspan>
  </text>
  <g>
    <rect style="fill: #ffffff" x="420" y="20" width="160" height="80"/>
    <rect style="fill: none; fill-opacity:0; stroke-width: 2; stroke: #000000" x="420" y="20" width="160" height="80"/>
    <text font-size="14.6756" style="fill: #000000;text-anchor:middle;font-family:sans-serif;font-style:normal;font-weight:normal" x="500" y="46.1333">
      <tspan x="500" y="46.1333">Video4Linux2</tspan>
      <tspan x="500" y="64.4778">kernel module</tspan>
      <tspan x="500" y="82.8222">(/dev/video0)</tspan>
    </text>
  </g>
  <g>
    <rect style="fill: #add8e6" x="620" y="20" width="160" height="80"/>
    <rect style="fill: none; fill-opacity:0; stroke-width: 2; stroke: #000000" x="620" y="20" width="160" height="80"/>
    <text font-size="14.6756" style="fill: #000000;text-anchor:middle;font-family:sans-serif;font-style:normal;font-weight:normal" x="700" y="46.1333">
      <tspan x="700" y="46.1333">Video4Linux2</tspan>
      <tspan x="700" y="64.4778">userspace</tspan>
      <tspan x="700" y="82.8222">application</tspan>
    </text>
  </g>
  <g>
    <line style="fill: none; fill-opacity:0; stroke-width: 2; stroke: #000000" x1="580.981" y1="60" x2="608.019" y2="60"/>
    <polygon style="fill: #000000" points="608.019,65 618.019,60 608.019,55 "/>
    <polygon style="fill: none; fill-opacity:0; stroke-width: 2; stroke: #000000" points="608.019,65 618.019,60 608.019,55 "/>
  </g>
  <g>
    <line style="fill: none; fill-opacity:0; stroke-width: 2; stroke: #000000" x1="460" y1="140" x2="460" y2="111"/>
    <polygon style="fill: #000000" points="465,111 460,101 455,111 "/>
    <polygon style="fill: none; fill-opacity:0; stroke-width: 2; stroke: #000000" points="465,111 460,101 455,111 "/>
  </g>
</svg>
