<?xml version="1.0" encoding="UTF-8" standalone="no"?>
<!-- Created by diasvg.py -->
<svg width="21.084cm" height="14.700cm" viewBox="1.750 0.650 22.834 15.350"
 xmlns="http://www.w3.org/2000/svg"
 xmlns:xlink="http://www.w3.org/1999/xlink">
<ellipse cx="2.000" cy="6.000" rx="0.200" ry="0.200" fill="#000000" stroke="none"  /><ellipse cx="2.000" cy="6.000" rx="0.200" ry="0.200" fill="none" stroke="#000000"  stroke-width="0.100" /><ellipse cx="8.000" cy="6.000" rx="0.200" ry="0.200" fill="#000000" stroke="none"  /><ellipse cx="8.000" cy="6.000" rx="0.200" ry="0.200" fill="none" stroke="#000000"  stroke-width="0.100" /><line x1="2.250" y1="6.000" x2="7.263" y2="6.000" stroke="#000000" stroke-width="0.100" />
<polygon fill="#000000" stroke="none" stroke-width="0.100" points="7.638,6.000 7.138,6.250 7.263,6.000 7.138,5.750 "/>
<polygon fill="none" stroke="#000000" stroke-width="0.100"  points="7.638,6.000 7.138,6.250 7.263,6.000 7.138,5.750 "/>
<ellipse cx="14.000" cy="2.000" rx="0.200" ry="0.200" fill="#000000" stroke="none"  /><ellipse cx="14.000" cy="2.000" rx="0.200" ry="0.200" fill="none" stroke="#000000"  stroke-width="0.100" /><line x1="8.206" y1="5.858" x2="13.399" y2="2.276" stroke="#000000" stroke-width="0.100" />
<polygon fill="#000000" stroke="none" stroke-width="0.100" points="13.708,2.063 13.438,2.553 13.399,2.276 13.154,2.142 "/>
<polygon fill="none" stroke="#000000" stroke-width="0.100"  points="13.708,2.063 13.438,2.553 13.399,2.276 13.154,2.142 "/>
<text x="5.000" y="5.500"  fill="#000000" text-anchor="middle" font-size="0.80" font-family="sans" font-style="normal" font-weight="400">
0</text>
<text x="11.000" y="3.500"  fill="#000000" text-anchor="middle" font-size="0.80" font-family="sans" font-style="normal" font-weight="400">
1</text>
<ellipse cx="14.000" cy="14.000" rx="0.200" ry="0.200" fill="#000000" stroke="none"  /><ellipse cx="14.000" cy="14.000" rx="0.200" ry="0.200" fill="none" stroke="#000000"  stroke-width="0.100" /><line x1="8.206" y1="10.142" x2="13.399" y2="13.724" stroke="#000000" stroke-width="0.100" />
<polygon fill="#000000" stroke="none" stroke-width="0.100" points="13.708,13.937 13.154,13.858 13.399,13.724 13.438,13.447 "/>
<polygon fill="none" stroke="#000000" stroke-width="0.100"  points="13.708,13.937 13.154,13.858 13.399,13.724 13.438,13.447 "/>
<ellipse cx="14.000" cy="6.000" rx="0.200" ry="0.200" fill="#000000" stroke="none"  /><ellipse cx="14.000" cy="6.000" rx="0.200" ry="0.200" fill="none" stroke="#000000"  stroke-width="0.100" /><line x1="8.250" y1="6.000" x2="13.313" y2="6.000" stroke="#000000" stroke-width="0.100" />
<polygon fill="#000000" stroke="none" stroke-width="0.100" points="13.688,6.000 13.188,6.250 13.313,6.000 13.188,5.750 "/>
<polygon fill="none" stroke="#000000" stroke-width="0.100"  points="13.688,6.000 13.188,6.250 13.313,6.000 13.188,5.750 "/>
<ellipse cx="2.000" cy="10.000" rx="0.200" ry="0.200" fill="#000000" stroke="none"  /><ellipse cx="2.000" cy="10.000" rx="0.200" ry="0.200" fill="none" stroke="#000000"  stroke-width="0.100" /><ellipse cx="8.000" cy="10.000" rx="0.200" ry="0.200" fill="#000000" stroke="none"  /><ellipse cx="8.000" cy="10.000" rx="0.200" ry="0.200" fill="none" stroke="#000000"  stroke-width="0.100" /><line x1="2.250" y1="10.000" x2="7.263" y2="10.000" stroke="#000000" stroke-width="0.100" />
<polygon fill="#000000" stroke="none" stroke-width="0.100" points="7.638,10.000 7.138,10.250 7.263,10.000 7.138,9.750 "/>
<polygon fill="none" stroke="#000000" stroke-width="0.100"  points="7.638,10.000 7.138,10.250 7.263,10.000 7.138,9.750 "/>
<ellipse cx="14.000" cy="10.000" rx="0.200" ry="0.200" fill="#000000" stroke="none"  /><ellipse cx="14.000" cy="10.000" rx="0.200" ry="0.200" fill="none" stroke="#000000"  stroke-width="0.100" /><line x1="8.250" y1="10.000" x2="13.313" y2="10.000" stroke="#000000" stroke-width="0.100" />
<polygon fill="#000000" stroke="none" stroke-width="0.100" points="13.688,10.000 13.188,10.250 13.313,10.000 13.188,9.750 "/>
<polygon fill="none" stroke="#000000" stroke-width="0.100"  points="13.688,10.000 13.188,10.250 13.313,10.000 13.188,9.750 "/>
<ellipse cx="19.400" cy="10.000" rx="0.200" ry="0.200" fill="#000000" stroke="none"  /><ellipse cx="19.400" cy="10.000" rx="0.200" ry="0.200" fill="none" stroke="#000000"  stroke-width="0.100" /><line x1="14.249" y1="10.000" x2="18.664" y2="10.000" stroke="#000000" stroke-width="0.100" />
<polygon fill="#000000" stroke="none" stroke-width="0.100" points="19.039,10.000 18.539,10.250 18.664,10.000 18.539,9.750 "/>
<polygon fill="none" stroke="#000000" stroke-width="0.100"  points="19.039,10.000 18.539,10.250 18.664,10.000 18.539,9.750 "/>
<ellipse cx="19.500" cy="6.000" rx="0.200" ry="0.200" fill="#000000" stroke="none"  /><ellipse cx="19.500" cy="6.000" rx="0.200" ry="0.200" fill="none" stroke="#000000"  stroke-width="0.100" /><line x1="14.250" y1="6.000" x2="18.813" y2="6.000" stroke="#000000" stroke-width="0.100" />
<polygon fill="#000000" stroke="none" stroke-width="0.100" points="19.188,6.000 18.688,6.250 18.813,6.000 18.688,5.750 "/>
<polygon fill="none" stroke="#000000" stroke-width="0.100"  points="19.188,6.000 18.688,6.250 18.813,6.000 18.688,5.750 "/>
<text x="11.000" y="13.000"  fill="#000000" text-anchor="middle" font-size="0.80" font-family="sans" font-style="normal" font-weight="400">
0</text>
<text x="11.000" y="5.500"  fill="#000000" text-anchor="middle" font-size="0.80" font-family="sans" font-style="normal" font-weight="400">
0</text>
<text x="5.000" y="9.500"  fill="#000000" text-anchor="middle" font-size="0.80" font-family="sans" font-style="normal" font-weight="400">
1</text>
<text x="11.000" y="9.500"  fill="#000000" text-anchor="middle" font-size="0.80" font-family="sans" font-style="normal" font-weight="400">
1</text>
<text x="17.000" y="6.000"  fill="#000000" text-anchor="middle" font-size="0.80" font-family="sans" font-style="normal" font-weight="400">
-</text>
<text x="17.000" y="9.500"  fill="#000000" text-anchor="middle" font-size="0.80" font-family="sans" font-style="normal" font-weight="400">
-</text>
<ellipse cx="14.000" cy="2.000" rx="1.300" ry="1.300" fill="none" stroke="#000000"  stroke-width="0.100" /><ellipse cx="14.000" cy="14.000" rx="1.300" ry="1.300" fill="none" stroke="#000000"  stroke-width="0.100" /><ellipse cx="19.500" cy="6.000" rx="1.300" ry="1.300" fill="none" stroke="#000000"  stroke-width="0.100" /><ellipse cx="19.400" cy="10.000" rx="1.300" ry="1.300" fill="none" stroke="#000000"  stroke-width="0.100" /><text x="22.000" y="2.212"  fill="#000000" text-anchor="start" font-size="0.80" font-family="sans" font-style="normal" font-weight="400">
00</text>
<text x="22.000" y="14.212"  fill="#000000" text-anchor="start" font-size="0.80" font-family="sans" font-style="normal" font-weight="400">
11</text>
<text x="22.000" y="6.221"  fill="#000000" text-anchor="start" font-size="0.80" font-family="sans" font-style="normal" font-weight="400">
---</text>
<text x="22.000" y="10.221"  fill="#000000" text-anchor="start" font-size="0.80" font-family="sans" font-style="normal" font-weight="400">
---</text>
</svg>