<?xml version="1.0" encoding="UTF-8" standalone="no"?>
<!-- Created by diasvg.py -->
<svg width="31.962cm" height="11.100cm" viewBox="1.260 0.950 33.222 12.050"
 xmlns="http://www.w3.org/2000/svg"
 xmlns:xlink="http://www.w3.org/1999/xlink">
<polygon fill="#FFFFFF" stroke="none" stroke-width="0.100" points="15.000,2.000 15.000,10.000 19.000,10.000 19.000,2.000 "/>
<polygon fill="none" stroke="#000000" stroke-width="0.100"  points="15.000,2.000 15.000,10.000 19.000,10.000 19.000,2.000 "/>
<polyline fill="none" stroke="#000000" stroke-width="0.100"  points="15.000,7.000 16.000,8.000 15.000,9.000 "/>
<rect x="7.000" y="2.000" width="6.000" height="8.000" fill="#FFFFFF" stroke="none" stroke-width="0"/>
<rect x="7.000" y="2.000" width="6.000" height="8.000" fill="none" stroke="#000000" stroke-width="0.100" />
<text x="10.000" y="5.395"  fill="#000000" text-anchor="middle" font-size="0.80" font-family="sans" font-style="normal" font-weight="400">
Next</text>
<text x="10.000" y="6.195"  fill="#000000" text-anchor="middle" font-size="0.80" font-family="sans" font-style="normal" font-weight="400">
state</text>
<text x="10.000" y="6.995"  fill="#000000" text-anchor="middle" font-size="0.80" font-family="sans" font-style="normal" font-weight="400">
logic</text>
<text x="17.000" y="5.821"  fill="#000000" text-anchor="middle" font-size="0.80" font-family="sans" font-style="normal" font-weight="400">
State</text>
<text x="17.000" y="6.621"  fill="#000000" text-anchor="middle" font-size="0.80" font-family="sans" font-style="normal" font-weight="400">
register</text>
<line x1="13.000" y1="4.000" x2="15.000" y2="4.000" stroke="#000000" stroke-width="0.100" />
<rect x="21.000" y="2.000" width="6.000" height="8.000" fill="#FFFFFF" stroke="none" stroke-width="0"/>
<rect x="21.000" y="2.000" width="6.000" height="8.000" fill="none" stroke="#000000" stroke-width="0.100" />
<text x="24.000" y="5.795"  fill="#000000" text-anchor="middle" font-size="0.80" font-family="sans" font-style="normal" font-weight="400">
Output</text>
<text x="24.000" y="6.595"  fill="#000000" text-anchor="middle" font-size="0.80" font-family="sans" font-style="normal" font-weight="400">
logic</text>
<line x1="19.000" y1="4.000" x2="21.000" y2="4.000" stroke="#000000" stroke-width="0.100" />
<polyline fill="none" stroke="#000000" stroke-width="0.100"  points="20.000,4.000 20.000,1.000 5.950,1.000 5.950,4.000 7.000,4.000 "/>
<line x1="7.000" y1="8.000" x2="4.000" y2="8.000" stroke="#000000" stroke-width="0.100" />
<text x="3.000" y="8.221"  fill="#000000" text-anchor="end" font-size="0.80" font-family="sans" font-style="normal" font-weight="400">
Input</text>
<ellipse cx="20.000" cy="4.000" rx="0.150" ry="0.150" fill="#000000" stroke="none"  /><ellipse cx="20.000" cy="4.000" rx="0.150" ry="0.150" fill="none" stroke="#000000"  stroke-width="0.100" /><polyline fill="none" stroke="#000000" stroke-width="0.100"  points="15.000,8.000 14.000,8.000 14.000,11.000 4.000,11.000 "/>
<text x="3.000" y="11.221"  fill="#000000" text-anchor="end" font-size="0.80" font-family="sans" font-style="normal" font-weight="400">
Clock</text>
<polyline fill="none" stroke="#000000" stroke-width="0.100"  points="21.000,8.000 19.950,8.000 19.950,12.000 5.500,12.000 5.500,8.000 "/>
<line x1="30.000" y1="4.000" x2="27.000" y2="4.000" stroke="#000000" stroke-width="0.100" />
<text x="31.000" y="4.221"  fill="#000000" text-anchor="start" font-size="0.80" font-family="sans" font-style="normal" font-weight="400">
Output</text>
</svg>