<?xml version="1.0" encoding="UTF-8" standalone="no"?>
<!-- Created by diasvg.py -->
<svg width="31.962cm" height="10.055cm" viewBox="1.260 0.995 33.222 11.050"
 xmlns="http://www.w3.org/2000/svg"
 xmlns:xlink="http://www.w3.org/1999/xlink">
<text x="3.000" y="3.221"  fill="#000000" text-anchor="end" font-size="0.80" font-family="sans" font-style="normal" font-weight="400">
Input</text>
<line x1="4.000" y1="3.000" x2="30.000" y2="3.000" stroke="#000000" stroke-width="0.100" />
<line x1="4.000" y1="7.000" x2="12.000" y2="7.000" stroke="#000000" stroke-width="0.100" />
<text x="3.000" y="7.221"  fill="#000000" text-anchor="end" font-size="0.80" font-family="sans" font-style="normal" font-weight="400">
Clock</text>
<text x="31.000" y="3.221"  fill="#000000" text-anchor="start" font-size="0.80" font-family="sans" font-style="normal" font-weight="400">
Output</text>
<rect x="12.000" y="1.000" width="6.000" height="8.000" fill="#FFFFFF" stroke="none" stroke-width="0"/>
<rect x="12.000" y="1.000" width="6.000" height="8.000" fill="none" stroke="#000000" stroke-width="0.100" />
<ellipse cx="18.000" cy="7.000" rx="0.300" ry="0.300" fill="#FFFFFF" stroke="none"  /><ellipse cx="18.000" cy="7.000" rx="0.300" ry="0.300" fill="none" stroke="#000000"  stroke-width="0.100" /><text x="13.000" y="2.695"  fill="#000000" text-anchor="middle" font-size="1.00" font-family="sans" font-style="normal" font-weight="400">
D</text>
<text x="13.000" y="6.695"  fill="#000000" text-anchor="middle" font-size="1.00" font-family="sans" font-style="normal" font-weight="400">
E</text>
<text x="17.000" y="6.695"  fill="#000000" text-anchor="middle" font-size="1.00" font-family="sans" font-style="normal" font-weight="400">
Q</text>
<text x="17.000" y="2.695"  fill="#000000" text-anchor="middle" font-size="1.00" font-family="sans" font-style="normal" font-weight="400">
Q</text>
<rect x="22.000" y="1.000" width="6.000" height="8.000" fill="#FFFFFF" stroke="none" stroke-width="0"/>
<rect x="22.000" y="1.000" width="6.000" height="8.000" fill="none" stroke="#000000" stroke-width="0.100" />
<ellipse cx="28.000" cy="7.000" rx="0.300" ry="0.300" fill="#FFFFFF" stroke="none"  /><ellipse cx="28.000" cy="7.000" rx="0.300" ry="0.300" fill="none" stroke="#000000"  stroke-width="0.100" /><text x="23.000" y="2.695"  fill="#000000" text-anchor="middle" font-size="1.00" font-family="sans" font-style="normal" font-weight="400">
D</text>
<text x="23.000" y="6.695"  fill="#000000" text-anchor="middle" font-size="1.00" font-family="sans" font-style="normal" font-weight="400">
E</text>
<text x="27.000" y="6.695"  fill="#000000" text-anchor="middle" font-size="1.00" font-family="sans" font-style="normal" font-weight="400">
Q</text>
<text x="27.000" y="2.695"  fill="#000000" text-anchor="middle" font-size="1.00" font-family="sans" font-style="normal" font-weight="400">
Q</text>
<polyline fill="none" stroke="#000000" stroke-width="0.100"  points="22.000,7.000 20.000,7.000 20.000,11.000 6.000,11.000 6.000,7.000 "/>
<polygon fill="#FFFFFF" stroke="none" stroke-width="0.100" points="8.000,6.000 8.000,8.000 9.750,7.000 "/>
<polygon fill="none" stroke="#000000" stroke-width="0.100"  points="8.000,6.000 8.000,8.000 9.750,7.000 "/>
<ellipse cx="9.750" cy="7.000" rx="0.250" ry="0.250" fill="#FFFFFF" stroke="none"  /><ellipse cx="9.750" cy="7.000" rx="0.250" ry="0.250" fill="none" stroke="#000000"  stroke-width="0.100" /></svg>