<?xml version="1.0" encoding="UTF-8" standalone="no"?>
<!-- Created by diasvg.py -->
<svg width="48.010cm" height="26.748cm" viewBox="1.100 0.626 49.110 27.374"
 xmlns="http://www.w3.org/2000/svg"
 xmlns:xlink="http://www.w3.org/1999/xlink">
<line x1="3.000" y1="6.000" x2="9.000" y2="6.000" stroke="#000000" stroke-width="0.100" />
<line x1="3.000" y1="8.000" x2="9.000" y2="8.000" stroke="#000000" stroke-width="0.100" />
<line x1="3.000" y1="10.000" x2="9.000" y2="10.000" stroke="#000000" stroke-width="0.100" />
<polygon fill="#FFFFFF" stroke="none" stroke-width="0.100" points="34.000,11.000 34.000,19.000 38.000,19.000 38.000,11.000 "/>
<polygon fill="none" stroke="#000000" stroke-width="0.100"  points="34.000,11.000 34.000,19.000 38.000,19.000 38.000,11.000 "/>
<polyline fill="none" stroke="#000000" stroke-width="0.100"  points="34.000,16.000 35.000,17.000 34.000,18.000 "/>
<polygon fill="#FFFFFF" stroke="none" stroke-width="0.100" points="40.000,9.000 40.000,17.000 44.000,15.000 44.000,11.000 "/>
<polygon fill="none" stroke="#000000" stroke-width="0.100"  points="40.000,9.000 40.000,17.000 44.000,15.000 44.000,11.000 "/>
<text x="42.000" y="12.390"  fill="#000000" text-anchor="middle" font-size="2.00" font-family="sans" font-style="normal" font-weight="400">
2:1</text>
<polyline fill="none" stroke="#000000" stroke-width="0.100"  points="38.000,15.000 38.050,15.000 39.950,15.000 40.000,15.000 "/>
<line x1="44.000" y1="13.000" x2="46.000" y2="13.000" stroke="#000000" stroke-width="0.100" />
<text x="2.000" y="24.221"  fill="#000000" text-anchor="end" font-size="0.80" font-family="sans" font-style="normal" font-weight="400">
clk</text>
<text x="2.000" y="12.221"  fill="#000000" text-anchor="end" font-size="0.80" font-family="sans" font-style="normal" font-weight="400">
d</text>
<text x="2.000" y="10.221"  fill="#000000" text-anchor="end" font-size="0.80" font-family="sans" font-style="normal" font-weight="400">
c</text>
<text x="2.000" y="8.221"  fill="#000000" text-anchor="end" font-size="0.80" font-family="sans" font-style="normal" font-weight="400">
b</text>
<text x="2.000" y="6.221"  fill="#000000" text-anchor="end" font-size="0.80" font-family="sans" font-style="normal" font-weight="400">
a</text>
<text x="47.000" y="13.221"  fill="#000000" text-anchor="start" font-size="0.80" font-family="sans" font-style="normal" font-weight="400">
output</text>
<line x1="42.000" y1="16.000" x2="42.000" y2="26.000" stroke="#000000" stroke-width="0.100" />
<text x="42.000" y="27.221"  fill="#000000" text-anchor="middle" font-size="0.80" font-family="sans" font-style="normal" font-weight="400">
m</text>
<polygon fill="#FFFFFF" stroke="none" stroke-width="0.100" points="9.000,4.000 9.000,12.000 15.000,12.000 15.000,4.000 "/>
<polygon fill="none" stroke="#000000" stroke-width="0.100"  points="9.000,4.000 9.000,12.000 15.000,12.000 15.000,4.000 "/>
<text x="12.000" y="7.390"  fill="#000000" text-anchor="middle" font-size="2.00" font-family="sans" font-style="normal" font-weight="400">
3-LUT</text>
<polygon fill="#FFFFFF" stroke="none" stroke-width="0.100" points="9.000,14.000 9.000,22.000 15.000,22.000 15.000,14.000 "/>
<polygon fill="none" stroke="#000000" stroke-width="0.100"  points="9.000,14.000 9.000,22.000 15.000,22.000 15.000,14.000 "/>
<text x="12.000" y="17.390"  fill="#000000" text-anchor="middle" font-size="2.00" font-family="sans" font-style="normal" font-weight="400">
3-LUT</text>
<polyline fill="none" stroke="#000000" stroke-width="0.100"  points="9.000,16.000 8.000,16.000 8.000,6.000 8.000,6.000 "/>
<polyline fill="none" stroke="#000000" stroke-width="0.100"  points="9.000,18.000 7.000,18.000 7.000,8.000 7.000,8.000 "/>
<polyline fill="none" stroke="#000000" stroke-width="0.100"  points="9.000,20.000 6.000,20.000 6.000,10.000 "/>
<ellipse cx="8.000" cy="6.000" rx="0.200" ry="0.200" fill="#000000" stroke="none"  /><ellipse cx="8.000" cy="6.000" rx="0.200" ry="0.200" fill="none" stroke="#000000"  stroke-width="0.100" /><ellipse cx="7.000" cy="8.000" rx="0.200" ry="0.200" fill="#000000" stroke="none"  /><ellipse cx="7.000" cy="8.000" rx="0.200" ry="0.200" fill="none" stroke="#000000"  stroke-width="0.100" /><ellipse cx="6.000" cy="10.000" rx="0.200" ry="0.200" fill="#000000" stroke="none"  /><ellipse cx="6.000" cy="10.000" rx="0.200" ry="0.200" fill="none" stroke="#000000"  stroke-width="0.100" /><rect x="20.000" y="4.000" width="6.000" height="8.000" fill="#FFFFFF" stroke="none" stroke-width="0"/>
<rect x="20.000" y="4.000" width="6.000" height="8.000" fill="none" stroke="#000000" stroke-width="0.100" />
<text x="23.000" y="7.686"  fill="#000000" text-anchor="middle" font-size="1.41" font-family="sans" font-style="normal" font-weight="400">
Full</text>
<text x="23.000" y="9.097"  fill="#000000" text-anchor="middle" font-size="1.41" font-family="sans" font-style="normal" font-weight="400">
Adder</text>
<text x="23.000" y="1.221"  fill="#000000" text-anchor="middle" font-size="0.80" font-family="sans" font-style="normal" font-weight="400">
carry in</text>
<polygon fill="#FFFFFF" stroke="none" stroke-width="0.100" points="18.000,14.000 18.000,22.000 22.000,20.000 22.000,16.000 "/>
<polygon fill="none" stroke="#000000" stroke-width="0.100"  points="18.000,14.000 18.000,22.000 22.000,20.000 22.000,16.000 "/>
<text x="20.000" y="17.390"  fill="#000000" text-anchor="middle" font-size="2.00" font-family="sans" font-style="normal" font-weight="400">
2:1</text>
<polyline fill="none" stroke="#000000" stroke-width="0.100"  points="18.000,16.000 16.000,16.000 16.000,8.000 16.000,8.000 "/>
<polyline fill="none" stroke="#000000" stroke-width="0.100"  points="20.000,10.000 17.000,10.000 17.000,20.000 18.000,20.000 "/>
<ellipse cx="17.000" cy="18.000" rx="0.200" ry="0.200" fill="#000000" stroke="none"  /><ellipse cx="17.000" cy="18.000" rx="0.200" ry="0.200" fill="none" stroke="#000000"  stroke-width="0.100" /><ellipse cx="16.000" cy="8.000" rx="0.200" ry="0.200" fill="#000000" stroke="none"  /><ellipse cx="16.000" cy="8.000" rx="0.200" ry="0.200" fill="none" stroke="#000000"  stroke-width="0.100" /><polyline fill="none" stroke="#000000" stroke-width="0.100"  points="20.000,6.000 16.000,6.000 16.000,8.000 15.000,8.000 "/>
<polygon fill="#FFFFFF" stroke="none" stroke-width="0.100" points="28.000,9.000 28.000,17.000 32.000,15.000 32.000,11.000 "/>
<polygon fill="none" stroke="#000000" stroke-width="0.100"  points="28.000,9.000 28.000,17.000 32.000,15.000 32.000,11.000 "/>
<text x="30.000" y="12.390"  fill="#000000" text-anchor="middle" font-size="2.00" font-family="sans" font-style="normal" font-weight="400">
2:1</text>
<polyline fill="none" stroke="#000000" stroke-width="0.100"  points="28.000,11.000 27.000,11.000 27.000,8.000 26.000,8.000 "/>
<polyline fill="none" stroke="#000000" stroke-width="0.100"  points="28.000,15.000 27.000,15.000 27.000,18.000 22.000,18.000 "/>
<line x1="34.000" y1="13.000" x2="32.000" y2="13.000" stroke="#000000" stroke-width="0.100" />
<polyline fill="none" stroke="#000000" stroke-width="0.100"  points="3.000,12.000 5.000,12.000 5.000,23.000 20.000,23.000 20.000,21.000 "/>
<line x1="23.000" y1="4.000" x2="23.000" y2="2.000" stroke="#000000" stroke-width="0.100" />
<text x="23.000" y="27.221"  fill="#000000" text-anchor="middle" font-size="0.80" font-family="sans" font-style="normal" font-weight="400">
carry out</text>
<polyline fill="none" stroke="#000000" stroke-width="0.100"  points="34.000,17.000 33.000,17.000 33.000,24.000 3.000,24.000 "/>
<polyline fill="none" stroke="#000000" stroke-width="0.100"  points="33.000,13.000 33.000,10.000 39.000,10.000 39.000,11.000 40.000,11.000 "/>
<ellipse cx="33.000" cy="13.000" rx="0.200" ry="0.200" fill="#000000" stroke="none"  /><ellipse cx="33.000" cy="13.000" rx="0.200" ry="0.200" fill="none" stroke="#000000"  stroke-width="0.100" /><line x1="23.000" y1="12.000" x2="23.000" y2="26.000" stroke="#000000" stroke-width="0.100" />
<line x1="16.750" y1="18.000" x2="15.000" y2="18.000" stroke="#000000" stroke-width="0.100" />
<line x1="36.000" y1="19.000" x2="36.000" y2="26.000" stroke="#000000" stroke-width="0.100" />
<text x="36.000" y="27.221"  fill="#000000" text-anchor="middle" font-size="0.80" font-family="sans" font-style="normal" font-weight="400">
reset</text>
</svg>