<?xml version="1.0" encoding="UTF-8" standalone="no"?>
<!-- Created by diasvg.py -->
<svg width="31.010cm" height="14.407cm" viewBox="1.100 0.995 32.110 15.402"
 xmlns="http://www.w3.org/2000/svg"
 xmlns:xlink="http://www.w3.org/1999/xlink">
<polygon fill="#FFFFFF" stroke="none" stroke-width="0.100" points="5.000,1.000 5.000,11.000 11.000,11.000 11.000,1.000 "/>
<polygon fill="none" stroke="#000000" stroke-width="0.100"  points="5.000,1.000 5.000,11.000 11.000,11.000 11.000,1.000 "/>
<text x="8.000" y="5.945"  fill="#000000" text-anchor="middle" font-size="2.00" font-family="sans" font-style="normal" font-weight="400">
4-LUT</text>
<line x1="3.000" y1="3.000" x2="5.000" y2="3.000" stroke="#000000" stroke-width="0.100" />
<line x1="3.000" y1="5.000" x2="5.000" y2="5.000" stroke="#000000" stroke-width="0.100" />
<line x1="3.000" y1="7.000" x2="5.000" y2="7.000" stroke="#000000" stroke-width="0.100" />
<line x1="3.000" y1="9.000" x2="5.000" y2="9.000" stroke="#000000" stroke-width="0.100" />
<polygon fill="#FFFFFF" stroke="none" stroke-width="0.100" points="15.000,4.000 15.000,12.000 19.000,12.000 19.000,4.000 "/>
<polygon fill="none" stroke="#000000" stroke-width="0.100"  points="15.000,4.000 15.000,12.000 19.000,12.000 19.000,4.000 "/>
<polyline fill="none" stroke="#000000" stroke-width="0.100"  points="15.000,9.000 16.000,10.000 15.000,11.000 "/>
<line x1="11.000" y1="6.000" x2="15.000" y2="6.000" stroke="#000000" stroke-width="0.100" />
<polygon fill="#FFFFFF" stroke="none" stroke-width="0.100" points="23.000,2.000 23.000,10.000 27.000,8.000 27.000,4.000 "/>
<polygon fill="none" stroke="#000000" stroke-width="0.100"  points="23.000,2.000 23.000,10.000 27.000,8.000 27.000,4.000 "/>
<text x="25.000" y="5.390"  fill="#000000" text-anchor="middle" font-size="2.00" font-family="sans" font-style="normal" font-weight="400">
2:1</text>
<polyline fill="none" stroke="#000000" stroke-width="0.100"  points="19.000,8.000 19.050,8.000 22.950,8.000 23.000,8.000 "/>
<polyline fill="none" stroke="#000000" stroke-width="0.100"  points="23.000,4.000 21.000,4.000 21.000,2.000 13.000,2.000 13.000,6.000 "/>
<line x1="27.000" y1="6.000" x2="29.000" y2="6.000" stroke="#000000" stroke-width="0.100" />
<line x1="17.000" y1="12.000" x2="17.000" y2="14.000" stroke="#000000" stroke-width="0.100" />
<polyline fill="none" stroke="#000000" stroke-width="0.100"  points="15.000,10.000 13.000,10.000 13.000,13.000 3.000,13.000 "/>
<text x="2.000" y="13.221"  fill="#000000" text-anchor="end" font-size="0.80" font-family="sans" font-style="normal" font-weight="400">
clk</text>
<text x="2.000" y="9.221"  fill="#000000" text-anchor="end" font-size="0.80" font-family="sans" font-style="normal" font-weight="400">
d</text>
<text x="2.000" y="7.221"  fill="#000000" text-anchor="end" font-size="0.80" font-family="sans" font-style="normal" font-weight="400">
c</text>
<text x="2.000" y="5.221"  fill="#000000" text-anchor="end" font-size="0.80" font-family="sans" font-style="normal" font-weight="400">
b</text>
<text x="2.000" y="3.221"  fill="#000000" text-anchor="end" font-size="0.80" font-family="sans" font-style="normal" font-weight="400">
a</text>
<text x="17.000" y="15.221"  fill="#000000" text-anchor="middle" font-size="0.80" font-family="sans" font-style="normal" font-weight="400">
reset</text>
<text x="30.000" y="6.221"  fill="#000000" text-anchor="start" font-size="0.80" font-family="sans" font-style="normal" font-weight="400">
output</text>
<ellipse cx="13.000" cy="6.000" rx="0.200" ry="0.200" fill="#000000" stroke="none"  /><ellipse cx="13.000" cy="6.000" rx="0.200" ry="0.200" fill="none" stroke="#000000"  stroke-width="0.100" /><line x1="25.000" y1="9.000" x2="25.000" y2="14.000" stroke="#000000" stroke-width="0.100" />
<text x="25.000" y="15.212"  fill="#000000" text-anchor="middle" font-size="0.80" font-family="sans" font-style="normal" font-weight="400">
m</text>
</svg>