<?xml version="1.0" encoding="UTF-8" standalone="no"?>
<!-- Created by diasvg.py -->
<svg width="11.345cm" height="11.581cm" viewBox="1.347 0.950 12.692 12.531"
 xmlns="http://www.w3.org/2000/svg"
 xmlns:xlink="http://www.w3.org/1999/xlink">
<line x1="9.000" y1="6.000" x2="11.000" y2="6.000" stroke="#000000" stroke-width="0.100" />
<text x="12.000" y="6.281"  fill="#000000" text-anchor="start" font-size="1.06" font-family="sans" font-style="normal" font-weight="400">
Q</text>
<polyline fill="none" stroke="#000000" stroke-width="0.100"  points="3.000,12.000 3.000,12.000 8.000,12.000 8.000,8.505 "/>
<text x="2.000" y="4.281"  fill="#000000" text-anchor="end" font-size="1.06" font-family="sans" font-style="normal" font-weight="400">
D</text>
<text x="2.000" y="12.281"  fill="#000000" text-anchor="end" font-size="1.06" font-family="sans" font-style="normal" font-weight="400">
E</text>
<polygon fill="#FFFFFF" stroke="none" stroke-width="0.100" points="5.000,2.000 5.000,10.000 9.000,8.000 9.000,4.000 "/>
<polygon fill="none" stroke="#000000" stroke-width="0.100"  points="5.000,2.000 5.000,10.000 9.000,8.000 9.000,4.000 "/>
<text x="7.000" y="5.945"  fill="#000000" text-anchor="middle" font-size="2.00" font-family="sans" font-style="normal" font-weight="400">
2:1</text>
<line x1="5.000" y1="4.000" x2="3.000" y2="4.000" stroke="#000000" stroke-width="0.100" />
<polyline fill="none" stroke="#000000" stroke-width="0.100"  points="10.000,6.000 10.000,1.000 4.000,1.000 4.000,8.000 5.000,8.000 "/>
<ellipse cx="10.000" cy="6.000" rx="0.100" ry="0.100" fill="#000000" stroke="none"  /><ellipse cx="10.000" cy="6.000" rx="0.100" ry="0.100" fill="none" stroke="#000000"  stroke-width="0.100" /></svg>