<?xml version="1.0" encoding="UTF-8" standalone="no"?>
<!-- Created by diasvg.py -->
<svg width="53.558cm" height="13.444cm" viewBox="2.100 0.626 55.658 14.071"
 xmlns="http://www.w3.org/2000/svg"
 xmlns:xlink="http://www.w3.org/1999/xlink">
<polygon fill="#FFFFFF" stroke="none" stroke-width="0.100" points="8.000,4.000 8.000,12.000 12.000,12.000 12.000,4.000 "/>
<polygon fill="none" stroke="#000000" stroke-width="0.100"  points="8.000,4.000 8.000,12.000 12.000,12.000 12.000,4.000 "/>
<polyline fill="none" stroke="#000000" stroke-width="0.100"  points="8.000,9.000 9.000,10.000 8.000,11.000 "/>
<line x1="8.000" y1="6.000" x2="4.000" y2="6.000" stroke="#000000" stroke-width="0.100" />
<line x1="4.000" y1="10.000" x2="8.000" y2="10.000" stroke="#000000" stroke-width="0.100" />
<text x="31.000" y="1.221"  fill="#000000" text-anchor="middle" font-size="0.80" font-family="sans" font-style="normal" font-weight="400">
q(4)</text>
<text x="3.000" y="6.212"  fill="#000000" text-anchor="end" font-size="0.80" font-family="sans" font-style="normal" font-weight="400">
d</text>
<text x="3.000" y="10.212"  fill="#000000" text-anchor="end" font-size="0.80" font-family="sans" font-style="normal" font-weight="400">
clk</text>
<polygon fill="#FFFFFF" stroke="none" stroke-width="0.100" points="14.000,4.000 14.000,12.000 18.000,12.000 18.000,4.000 "/>
<polygon fill="none" stroke="#000000" stroke-width="0.100"  points="14.000,4.000 14.000,12.000 18.000,12.000 18.000,4.000 "/>
<polyline fill="none" stroke="#000000" stroke-width="0.100"  points="14.000,9.000 15.000,10.000 14.000,11.000 "/>
<polygon fill="#FFFFFF" stroke="none" stroke-width="0.100" points="20.000,4.000 20.000,12.000 24.000,12.000 24.000,4.000 "/>
<polygon fill="none" stroke="#000000" stroke-width="0.100"  points="20.000,4.000 20.000,12.000 24.000,12.000 24.000,4.000 "/>
<polyline fill="none" stroke="#000000" stroke-width="0.100"  points="20.000,9.000 21.000,10.000 20.000,11.000 "/>
<polygon fill="#FFFFFF" stroke="none" stroke-width="0.100" points="26.000,4.000 26.000,12.000 30.000,12.000 30.000,4.000 "/>
<polygon fill="none" stroke="#000000" stroke-width="0.100"  points="26.000,4.000 26.000,12.000 30.000,12.000 30.000,4.000 "/>
<polyline fill="none" stroke="#000000" stroke-width="0.100"  points="26.000,9.000 27.000,10.000 26.000,11.000 "/>
<polyline fill="none" stroke="#000000" stroke-width="0.100"  points="14.000,10.000 14.000,10.000 13.000,10.000 13.000,14.000 "/>
<polyline fill="none" stroke="#000000" stroke-width="0.100"  points="20.000,10.000 19.000,10.000 19.000,14.000 19.000,14.000 "/>
<polyline fill="none" stroke="#000000" stroke-width="0.100"  points="12.000,8.000 13.000,8.000 13.000,2.000 13.000,2.000 "/>
<line x1="14.000" y1="6.000" x2="13.000" y2="6.000" stroke="#000000" stroke-width="0.100" />
<polyline fill="none" stroke="#000000" stroke-width="0.100"  points="18.000,8.000 19.000,8.000 19.000,2.000 19.000,2.000 "/>
<line x1="20.000" y1="6.000" x2="19.000" y2="6.000" stroke="#000000" stroke-width="0.100" />
<polyline fill="none" stroke="#000000" stroke-width="0.100"  points="24.000,8.000 25.000,8.000 25.000,2.000 25.000,2.000 "/>
<line x1="26.000" y1="6.000" x2="25.000" y2="6.000" stroke="#000000" stroke-width="0.100" />
<polyline fill="none" stroke="#000000" stroke-width="0.100"  points="30.000,8.000 31.000,8.000 31.000,2.000 31.000,2.000 "/>
<text x="25.000" y="1.221"  fill="#000000" text-anchor="middle" font-size="0.80" font-family="sans" font-style="normal" font-weight="400">
q(5)</text>
<text x="19.000" y="1.221"  fill="#000000" text-anchor="middle" font-size="0.80" font-family="sans" font-style="normal" font-weight="400">
q(6)</text>
<text x="13.000" y="1.221"  fill="#000000" text-anchor="middle" font-size="0.80" font-family="sans" font-style="normal" font-weight="400">
q(7)</text>
<polygon fill="#FFFFFF" stroke="none" stroke-width="0.100" points="32.000,4.000 32.000,12.000 36.000,12.000 36.000,4.000 "/>
<polygon fill="none" stroke="#000000" stroke-width="0.100"  points="32.000,4.000 32.000,12.000 36.000,12.000 36.000,4.000 "/>
<polyline fill="none" stroke="#000000" stroke-width="0.100"  points="32.000,9.000 33.000,10.000 32.000,11.000 "/>
<polygon fill="#FFFFFF" stroke="none" stroke-width="0.100" points="38.000,4.000 38.000,12.000 42.000,12.000 42.000,4.000 "/>
<polygon fill="none" stroke="#000000" stroke-width="0.100"  points="38.000,4.000 38.000,12.000 42.000,12.000 42.000,4.000 "/>
<polyline fill="none" stroke="#000000" stroke-width="0.100"  points="38.000,9.000 39.000,10.000 38.000,11.000 "/>
<polygon fill="#FFFFFF" stroke="none" stroke-width="0.100" points="44.000,4.000 44.000,12.000 48.000,12.000 48.000,4.000 "/>
<polygon fill="none" stroke="#000000" stroke-width="0.100"  points="44.000,4.000 44.000,12.000 48.000,12.000 48.000,4.000 "/>
<polyline fill="none" stroke="#000000" stroke-width="0.100"  points="44.000,9.000 45.000,10.000 44.000,11.000 "/>
<polygon fill="#FFFFFF" stroke="none" stroke-width="0.100" points="50.000,4.000 50.000,12.000 54.000,12.000 54.000,4.000 "/>
<polygon fill="none" stroke="#000000" stroke-width="0.100"  points="50.000,4.000 50.000,12.000 54.000,12.000 54.000,4.000 "/>
<polyline fill="none" stroke="#000000" stroke-width="0.100"  points="50.000,9.000 51.000,10.000 50.000,11.000 "/>
<polyline fill="none" stroke="#000000" stroke-width="0.100"  points="50.000,10.000 49.000,10.000 49.000,14.000 7.000,14.000 7.000,10.000 "/>
<polyline fill="none" stroke="#000000" stroke-width="0.100"  points="38.000,10.000 38.000,10.000 37.000,10.000 37.000,14.000 "/>
<polyline fill="none" stroke="#000000" stroke-width="0.100"  points="44.000,10.000 43.000,10.000 43.000,14.000 43.000,14.000 "/>
<polyline fill="none" stroke="#000000" stroke-width="0.100"  points="36.000,8.000 37.000,8.000 37.000,2.000 37.000,2.000 "/>
<line x1="38.000" y1="6.000" x2="37.000" y2="6.000" stroke="#000000" stroke-width="0.100" />
<polyline fill="none" stroke="#000000" stroke-width="0.100"  points="42.000,8.000 43.000,8.000 43.000,2.000 43.000,2.000 "/>
<line x1="44.000" y1="6.000" x2="43.000" y2="6.000" stroke="#000000" stroke-width="0.100" />
<polyline fill="none" stroke="#000000" stroke-width="0.100"  points="48.000,8.000 49.000,8.000 49.000,2.000 49.000,2.000 "/>
<line x1="50.000" y1="6.000" x2="49.000" y2="6.000" stroke="#000000" stroke-width="0.100" />
<polyline fill="none" stroke="#000000" stroke-width="0.100"  points="54.000,8.000 55.000,8.000 55.000,2.000 55.000,2.000 "/>
<text x="55.000" y="1.221"  fill="#000000" text-anchor="middle" font-size="0.80" font-family="sans" font-style="normal" font-weight="400">
q(0)</text>
<text x="49.000" y="1.221"  fill="#000000" text-anchor="middle" font-size="0.80" font-family="sans" font-style="normal" font-weight="400">
q(1)</text>
<text x="43.000" y="1.221"  fill="#000000" text-anchor="middle" font-size="0.80" font-family="sans" font-style="normal" font-weight="400">
q(2)</text>
<text x="37.000" y="1.221"  fill="#000000" text-anchor="middle" font-size="0.80" font-family="sans" font-style="normal" font-weight="400">
q(3)</text>
<polyline fill="none" stroke="#000000" stroke-width="0.100"  points="32.000,10.000 32.000,10.000 31.000,10.000 31.000,14.000 "/>
<polyline fill="none" stroke="#000000" stroke-width="0.100"  points="26.000,10.000 26.000,10.000 25.000,10.000 25.000,14.000 "/>
</svg>