<?xml version="1.0" encoding="UTF-8" standalone="no"?>
<!-- Created by diasvg.py -->
<svg width="8.100cm" height="7.214cm" viewBox="0.780 0.993 8.880 8.207"
 xmlns="http://www.w3.org/2000/svg"
 xmlns:xlink="http://www.w3.org/1999/xlink">
<line x1="2.895" y1="1.600" x2="1.600" y2="1.600" stroke="#000000" stroke-width="0.100" />
<line x1="1.600" y1="7.600" x2="2.895" y2="7.600" stroke="#000000" stroke-width="0.100" />
<line x1="8.000" y1="2.200" x2="6.600" y2="2.200" stroke="#000000" stroke-width="0.100" />
<line x1="8.000" y1="7.000" x2="6.600" y2="7.000" stroke="#000000" stroke-width="0.100" />
<text x="8.200" y="2.421"  fill="#000000" text-anchor="start" font-size="0.80" font-family="sans" font-style="normal" font-weight="400">
Q</text>
<text x="1.400" y="1.821"  fill="#000000" text-anchor="end" font-size="0.80" font-family="sans" font-style="normal" font-weight="400">
S&apos;</text>
<text x="1.400" y="7.821"  fill="#000000" text-anchor="end" font-size="0.80" font-family="sans" font-style="normal" font-weight="400">
R&apos;</text>
<text x="8.200" y="7.221"  fill="#000000" text-anchor="start" font-size="0.80" font-family="sans" font-style="normal" font-weight="400">
Q&apos;</text>
<line x1="5.895" y1="2.200" x2="6.400" y2="2.200" stroke="#000000" stroke-width="0.100" />
<line x1="5.895" y1="7.000" x2="6.400" y2="7.000" stroke="#000000" stroke-width="0.100" />
<path stroke="none" fill="#FFFFFF" stroke-width="0.100" d="M 5.895,7.000 C 5.895,7.600 5.295,8.200 4.395,8.200 C 3.645,8.200 2.895,8.200 2.895,8.200 L 2.895,5.800 C 2.895,5.800 3.645,5.800 4.395,5.800 C 5.145,5.800 5.895,6.400 5.895,7.000 "/>
<path stroke="#000000" fill="none" stroke-width="0.100"  d="M 5.895,7.000 C 5.895,7.600 5.295,8.200 4.395,8.200 C 3.645,8.200 2.895,8.200 2.895,8.200 L 2.895,5.800 C 2.895,5.800 3.645,5.800 4.395,5.800 C 5.145,5.800 5.895,6.400 5.895,7.000 "/>
<ellipse cx="5.895" cy="7.000" rx="0.300" ry="0.300" fill="#FFFFFF" stroke="none"  /><ellipse cx="5.895" cy="7.000" rx="0.300" ry="0.300" fill="none" stroke="#000000"  stroke-width="0.100" /><path stroke="none" fill="#FFFFFF" stroke-width="0.100" d="M 5.895,2.200 C 5.895,2.800 5.295,3.400 4.395,3.400 C 3.645,3.400 2.895,3.400 2.895,3.400 L 2.895,1.000 C 2.895,1.000 3.645,1.000 4.395,1.000 C 5.145,1.000 5.895,1.600 5.895,2.200 "/>
<path stroke="#000000" fill="none" stroke-width="0.100"  d="M 5.895,2.200 C 5.895,2.800 5.295,3.400 4.395,3.400 C 3.645,3.400 2.895,3.400 2.895,3.400 L 2.895,1.000 C 2.895,1.000 3.645,1.000 4.395,1.000 C 5.145,1.000 5.895,1.600 5.895,2.200 "/>
<ellipse cx="5.895" cy="2.200" rx="0.300" ry="0.300" fill="#FFFFFF" stroke="none"  /><ellipse cx="5.895" cy="2.200" rx="0.300" ry="0.300" fill="none" stroke="#000000"  stroke-width="0.100" /><ellipse cx="6.500" cy="7.000" rx="0.100" ry="0.100" fill="#000000" stroke="none"  /><ellipse cx="6.500" cy="7.000" rx="0.100" ry="0.100" fill="none" stroke="#000000"  stroke-width="0.100" /><ellipse cx="6.500" cy="2.200" rx="0.100" ry="0.100" fill="#000000" stroke="none"  /><ellipse cx="6.500" cy="2.200" rx="0.100" ry="0.100" fill="none" stroke="#000000"  stroke-width="0.100" /><polyline fill="none" stroke="#000000" stroke-width="0.100"  points="2.895,2.800 2.379,2.800 2.379,4.790 6.500,4.790 6.500,6.900 "/>
<polyline fill="none" stroke="#000000" stroke-width="0.100"  points="6.500,2.300 6.500,4.100 1.600,4.100 1.600,6.400 2.895,6.400 "/>
</svg>