<?xml version="1.0" encoding="UTF-8" standalone="no"?>
<!-- Created by diasvg.py -->
<svg width="24.335cm" height="11.547cm" viewBox="0.833 1.226 25.168 12.774"
 xmlns="http://www.w3.org/2000/svg"
 xmlns:xlink="http://www.w3.org/1999/xlink">
<path stroke="#000000" fill="none" stroke-width="0.100"  d="M 9.402,4.991 C 9.902,2.491 16.098,2.491 16.503,4.514 "/>
<polygon fill="#000000" stroke="none" stroke-width="0.100" points="16.576,4.881 16.233,4.440 16.503,4.514 16.723,4.342 "/>
<polygon fill="none" stroke="#000000" stroke-width="0.100"  points="16.576,4.881 16.233,4.440 16.503,4.514 16.723,4.342 "/>
<ellipse cx="9.000" cy="7.000" rx="2.000" ry="2.000" fill="#FFFFFF" stroke="none"  /><ellipse cx="9.000" cy="7.000" rx="2.000" ry="2.000" fill="none" stroke="#000000"  stroke-width="0.100" /><ellipse cx="17.000" cy="7.000" rx="2.000" ry="2.000" fill="#FFFFFF" stroke="none"  /><ellipse cx="17.000" cy="7.000" rx="2.000" ry="2.000" fill="none" stroke="#000000"  stroke-width="0.100" /><text x="13.000" y="1.821"  fill="#000000" text-anchor="middle" font-size="0.80" font-family="sans" font-style="normal" font-weight="400">
S=1</text>
<text x="13.000" y="2.621"  fill="#000000" text-anchor="middle" font-size="0.80" font-family="sans" font-style="normal" font-weight="400">
R=0</text>
<path stroke="#000000" fill="none" stroke-width="0.100"  d="M 16.598,9.009 C 16.098,11.509 9.902,11.509 9.497,9.486 "/>
<polygon fill="#000000" stroke="none" stroke-width="0.100" points="9.424,9.119 9.767,9.560 9.497,9.486 9.277,9.658 "/>
<polygon fill="none" stroke="#000000" stroke-width="0.100"  points="9.424,9.119 9.767,9.560 9.497,9.486 9.277,9.658 "/>
<text x="13.000" y="11.821"  fill="#000000" text-anchor="middle" font-size="0.80" font-family="sans" font-style="normal" font-weight="400">
S=0</text>
<text x="13.000" y="12.621"  fill="#000000" text-anchor="middle" font-size="0.80" font-family="sans" font-style="normal" font-weight="400">
R=1</text>
<path stroke="#000000" fill="none" stroke-width="0.100"  d="M 18.414,5.586 C 22.854,1.146 22.854,12.854 18.758,8.758 "/>
<polygon fill="#000000" stroke="none" stroke-width="0.100" points="18.493,8.493 19.024,8.670 18.758,8.758 18.670,9.024 "/>
<polygon fill="none" stroke="#000000" stroke-width="0.100"  points="18.493,8.493 19.024,8.670 18.758,8.758 18.670,9.024 "/>
<text x="24.000" y="6.848"  fill="#000000" text-anchor="middle" font-size="0.80" font-family="sans" font-style="normal" font-weight="400">
S=R=0</text>
<text x="2.000" y="6.848"  fill="#000000" text-anchor="middle" font-size="0.80" font-family="sans" font-style="normal" font-weight="400">
S=R=0</text>
<path stroke="#000000" fill="none" stroke-width="0.100"  d="M 7.586,5.586 C 3.146,1.146 2.586,13.414 7.242,8.758 "/>
<polygon fill="#000000" stroke="none" stroke-width="0.100" points="7.507,8.493 7.330,9.024 7.242,8.758 6.976,8.670 "/>
<polygon fill="none" stroke="#000000" stroke-width="0.100"  points="7.507,8.493 7.330,9.024 7.242,8.758 6.976,8.670 "/>
<text x="9.000" y="7.221"  fill="#000000" text-anchor="middle" font-size="0.80" font-family="sans" font-style="normal" font-weight="400">
Q=0</text>
<text x="17.000" y="7.221"  fill="#000000" text-anchor="middle" font-size="0.80" font-family="sans" font-style="normal" font-weight="400">
Q=1</text>
</svg>