<?xml version="1.0" encoding="UTF-8" standalone="no"?>
<!-- Created by diasvg.py -->
<svg width="25.505cm" height="24.381cm" viewBox="0.480 0.993 25.985 25.374"
 xmlns="http://www.w3.org/2000/svg"
 xmlns:xlink="http://www.w3.org/1999/xlink">
<polygon fill="#FFFFFF" stroke="none" stroke-width="0.100" points="8.000,11.000 8.000,21.000 14.000,19.000 14.000,13.000 "/>
<polygon fill="none" stroke="#000000" stroke-width="0.100"  points="8.000,11.000 8.000,21.000 14.000,19.000 14.000,13.000 "/>
<text x="11.000" y="15.375"  fill="#000000" text-anchor="middle" font-size="2.00" font-family="sans" font-style="normal" font-weight="400">
4:1</text>
<polygon fill="#FFFFFF" stroke="none" stroke-width="0.100" points="14.000,1.000 14.000,11.000 20.000,9.000 20.000,3.000 "/>
<polygon fill="none" stroke="#000000" stroke-width="0.100"  points="14.000,1.000 14.000,11.000 20.000,9.000 20.000,3.000 "/>
<text x="17.000" y="5.375"  fill="#000000" text-anchor="middle" font-size="2.00" font-family="sans" font-style="normal" font-weight="400">
4:1</text>
<text x="23.000" y="16.221"  fill="#000000" text-anchor="start" font-size="0.80" font-family="sans" font-style="normal" font-weight="400">
Carry out</text>
<polyline fill="none" stroke="#000000" stroke-width="0.100"  points="16.000,10.333 16.000,23.000 4.000,23.000 4.000,23.000 "/>
<text x="3.000" y="23.221"  fill="#000000" text-anchor="end" font-size="0.80" font-family="sans" font-style="normal" font-weight="400">
B</text>
<line x1="20.004" y1="6.000" x2="22.000" y2="6.000" stroke="#000000" stroke-width="0.100" />
<text x="23.000" y="6.221"  fill="#000000" text-anchor="start" font-size="0.80" font-family="sans" font-style="normal" font-weight="400">
Sum</text>
<text x="3.000" y="25.221"  fill="#000000" text-anchor="end" font-size="0.80" font-family="sans" font-style="normal" font-weight="400">
Carry in</text>
<polyline fill="none" stroke="#000000" stroke-width="0.100"  points="18.000,9.667 18.000,25.000 4.000,25.000 4.000,25.000 "/>
<line x1="14.000" y1="16.000" x2="22.000" y2="16.000" stroke="#000000" stroke-width="0.100" />
<line x1="4.000" y1="3.000" x2="14.000" y2="3.000" stroke="#000000" stroke-width="0.100" />
<line x1="9.750" y1="5.000" x2="14.000" y2="5.000" stroke="#000000" stroke-width="0.100" />
<line x1="4.000" y1="13.000" x2="8.000" y2="13.000" stroke="#000000" stroke-width="0.100" />
<text x="3.000" y="13.221"  fill="#000000" text-anchor="end" font-size="0.80" font-family="sans" font-style="normal" font-weight="400">
0</text>
<text x="3.000" y="19.221"  fill="#000000" text-anchor="end" font-size="0.80" font-family="sans" font-style="normal" font-weight="400">
1</text>
<text x="3.000" y="3.221"  fill="#000000" text-anchor="end" font-size="0.80" font-family="sans" font-style="normal" font-weight="400">
A</text>
<polyline fill="none" stroke="#000000" stroke-width="0.100"  points="10.000,20.333 10.000,23.000 10.000,23.000 10.000,23.000 "/>
<polyline fill="none" stroke="#000000" stroke-width="0.100"  points="12.000,19.667 12.000,25.000 12.000,25.000 12.000,25.000 "/>
<line x1="6.200" y1="15.000" x2="8.000" y2="15.000" stroke="#000000" stroke-width="0.100" />
<line x1="4.000" y1="19.000" x2="8.000" y2="19.000" stroke="#000000" stroke-width="0.100" />
<ellipse cx="12.000" cy="25.000" rx="0.150" ry="0.150" fill="#000000" stroke="none"  /><ellipse cx="12.000" cy="25.000" rx="0.150" ry="0.150" fill="none" stroke="#000000"  stroke-width="0.100" /><ellipse cx="10.000" cy="23.000" rx="0.150" ry="0.150" fill="#000000" stroke="none"  /><ellipse cx="10.000" cy="23.000" rx="0.150" ry="0.150" fill="none" stroke="#000000"  stroke-width="0.100" /><polyline fill="none" stroke="#000000" stroke-width="0.100"  points="12.000,5.200 12.000,7.000 13.100,7.000 13.100,7.000 14.000,7.000 "/>
<polygon fill="#FFFFFF" stroke="none" stroke-width="0.100" points="8.000,4.000 8.000,6.000 9.750,5.000 "/>
<polygon fill="none" stroke="#000000" stroke-width="0.100"  points="8.000,4.000 8.000,6.000 9.750,5.000 "/>
<ellipse cx="9.750" cy="5.000" rx="0.250" ry="0.250" fill="#FFFFFF" stroke="none"  /><ellipse cx="9.750" cy="5.000" rx="0.250" ry="0.250" fill="none" stroke="#000000"  stroke-width="0.100" /><ellipse cx="12.000" cy="5.000" rx="0.150" ry="0.150" fill="#000000" stroke="none"  /><ellipse cx="12.000" cy="5.000" rx="0.150" ry="0.150" fill="none" stroke="#000000"  stroke-width="0.100" /><polyline fill="none" stroke="#000000" stroke-width="0.100"  points="8.000,17.000 6.000,17.000 6.000,2.894 5.894,2.894 "/>
<ellipse cx="6.000" cy="3.000" rx="0.150" ry="0.150" fill="#000000" stroke="none"  /><ellipse cx="6.000" cy="3.000" rx="0.150" ry="0.150" fill="none" stroke="#000000"  stroke-width="0.100" /><ellipse cx="6.000" cy="5.000" rx="0.150" ry="0.150" fill="#000000" stroke="none"  /><ellipse cx="6.000" cy="5.000" rx="0.150" ry="0.150" fill="none" stroke="#000000"  stroke-width="0.100" /><line x1="8.000" y1="5.000" x2="6.200" y2="5.000" stroke="#000000" stroke-width="0.100" />
<line x1="14.000" y1="9.000" x2="6.200" y2="9.000" stroke="#000000" stroke-width="0.100" />
<ellipse cx="6.000" cy="9.000" rx="0.150" ry="0.150" fill="#000000" stroke="none"  /><ellipse cx="6.000" cy="9.000" rx="0.150" ry="0.150" fill="none" stroke="#000000"  stroke-width="0.100" /><ellipse cx="6.000" cy="15.000" rx="0.150" ry="0.150" fill="#000000" stroke="none"  /><ellipse cx="6.000" cy="15.000" rx="0.150" ry="0.150" fill="none" stroke="#000000"  stroke-width="0.100" /></svg>